<svg width="24" height="24" viewBox="0 0 24 24" fill="none" xmlns="http://www.w3.org/2000/svg">
<path d="M11.9417 17.9665C11.8507 17.8596 11.7452 17.7343 11.6273 17.5926C11.2047 17.0843 10.6251 16.3648 9.99781 15.5212C8.73883 13.8281 7.31432 11.67 6.56341 9.72659C6.37122 9.13886 6.36574 8.81771 6.36574 8.28311C6.36574 5.27877 8.8749 2.81939 12 2.81939C15.1251 2.81939 17.6342 5.27877 17.6342 8.28311V8.29654C17.6342 8.85825 17.6342 9.25683 17.4552 9.67294L17.4431 9.7012L17.4345 9.73075C16.9817 11.2855 15.5453 13.4312 14.1673 15.2371C13.4871 16.1284 12.8362 16.9179 12.3552 17.4848C12.1972 17.671 12.0577 17.833 11.9417 17.9665Z" stroke="white"/>
<circle r="2.03254" transform="matrix(1 0 0 -1 12 8.28311)" stroke="white"/>
<path d="M9.25752 16.8173C7.15741 17.2319 5.7095 18.1078 5.7095 19.1213C5.7095 20.5348 8.52585 21.6806 12 21.6806C15.4741 21.6806 18.2905 20.5348 18.2905 19.1213C18.2905 18.1286 16.9014 17.2679 14.8709 16.8434" stroke="white"/>
</svg>