<svg width="24" height="24" viewBox="0 0 24 24" fill="none" xmlns="http://www.w3.org/2000/svg">
<path d="M5.83478 6.96278C5.83478 6.96278 7.93478 7.16278 9.73478 6.56278C11.5348 5.96278 11.6348 5.46278 13.3348 5.46278C14.7348 5.46278 17.9348 8.26278 18.9348 9.16278C19.1348 9.36278 19.3348 9.56278 19.4348 9.76278C20.1348 10.9628 22.1348 14.2628 21.8348 14.5628C21.4348 14.9628 19.8348 14.3628 19.1348 13.6628C18.4348 12.9628 18.4348 12.4628 17.5348 11.5628C17.2348 11.1628 16.5348 10.7628 15.8348 10.4628C14.8348 10.0628 13.8348 9.66278 13.0348 9.86278C11.6348 10.1628 13.1348 12.2628 14.1348 13.3628C15.1348 14.4628 15.7348 14.6628 16.2348 15.8628C16.5348 16.5628 16.7348 17.4628 16.6348 18.1628C16.5348 18.5628 16.0348 18.6628 15.7348 18.3628L15.1348 17.6628C14.4348 16.7628 13.0348 16.0628 12.0348 15.7628C12.0348 15.7628 8.23478 14.4628 7.43478 14.1628C6.63478 13.7628 5.83478 12.5628 5.83478 12.5628" stroke="white" stroke-miterlimit="10" stroke-linecap="round" stroke-linejoin="round"/>
<path d="M2.93478 13.9628H4.93478C5.43478 13.9628 5.73478 13.5628 5.73478 13.1628V7.06279C5.73478 6.56279 5.33478 6.26279 4.93478 6.26279H2.93478C2.43478 6.26279 2.13478 6.66279 2.13478 7.06279V13.1628C2.13478 13.6628 2.53478 13.9628 2.93478 13.9628Z" stroke="white" stroke-miterlimit="10" stroke-linecap="round" stroke-linejoin="round"/>
<path d="M18.6348 18.0628C19.7394 18.0628 20.6348 17.1674 20.6348 16.0628C20.6348 14.9582 19.7394 14.0628 18.6348 14.0628C17.5302 14.0628 16.6348 14.9582 16.6348 16.0628C16.6348 17.1674 17.5302 18.0628 18.6348 18.0628Z" stroke="white" stroke-miterlimit="10" stroke-linecap="round" stroke-linejoin="round"/>
</svg>
