<svg width="41" height="28" viewBox="0 0 41 28" fill="none" xmlns="http://www.w3.org/2000/svg">
<path d="M0.689684 15.4562L5.39316 1.08124H35.6068L40.3103 15.4562H0.689684Z" stroke="white"/>
<mask id="path-2-inside-1" fill="white">
<path fill-rule="evenodd" clip-rule="evenodd" d="M6.56996 15.1875C5.35267 16.5476 4.61249 18.3436 4.61249 20.3125C4.61249 24.5582 8.0543 28 12.3 28H28.4437C32.6894 28 36.1312 24.5582 36.1312 20.3125C36.1312 18.3436 35.3911 16.5476 34.1738 15.1875H29.5018C29.8087 15.805 29.9812 16.5011 29.9812 17.2375C29.9812 19.7849 27.9161 21.85 25.3687 21.85H15.375C12.8276 21.85 10.7625 19.7849 10.7625 17.2375C10.7625 16.5011 10.935 15.805 11.2419 15.1875H6.56996Z"/>
</mask>
<path d="M6.56996 15.1875V14.1875H6.12295L5.82483 14.5206L6.56996 15.1875ZM34.1738 15.1875L34.9189 14.5206L34.6208 14.1875H34.1738V15.1875ZM29.5018 15.1875V14.1875H27.8881L28.6063 15.6325L29.5018 15.1875ZM11.2419 15.1875L12.1375 15.6325L12.8556 14.1875H11.2419V15.1875ZM5.82483 14.5206C4.44979 16.0569 3.61249 18.0881 3.61249 20.3125H5.61249C5.61249 18.5991 6.25556 17.0382 7.3151 15.8544L5.82483 14.5206ZM3.61249 20.3125C3.61249 25.1105 7.50202 29 12.3 29V27C8.60659 27 5.61249 24.0059 5.61249 20.3125H3.61249ZM12.3 29H28.4437V27H12.3V29ZM28.4437 29C33.2417 29 37.1312 25.1105 37.1312 20.3125H35.1312C35.1312 24.0059 32.1371 27 28.4437 27V29ZM37.1312 20.3125C37.1312 18.0881 36.2939 16.0569 34.9189 14.5206L33.4286 15.8544C34.4882 17.0382 35.1312 18.5991 35.1312 20.3125H37.1312ZM34.1738 14.1875H29.5018V16.1875H34.1738V14.1875ZM28.6063 15.6325C28.846 16.1149 28.9812 16.659 28.9812 17.2375H30.9812C30.9812 16.3433 30.7714 15.4952 30.3973 14.7425L28.6063 15.6325ZM28.9812 17.2375C28.9812 19.2326 27.3639 20.85 25.3687 20.85V22.85C28.4684 22.85 30.9812 20.3372 30.9812 17.2375H28.9812ZM25.3687 20.85H15.375V22.85H25.3687V20.85ZM15.375 20.85C13.3799 20.85 11.7625 19.2326 11.7625 17.2375H9.76249C9.76249 20.3372 12.2753 22.85 15.375 22.85V20.85ZM11.7625 17.2375C11.7625 16.659 11.8977 16.1149 12.1375 15.6325L10.3464 14.7425C9.97235 15.4952 9.76249 16.3433 9.76249 17.2375H11.7625ZM11.2419 14.1875H6.56996V16.1875H11.2419V14.1875Z" fill="white" mask="url(#path-2-inside-1)"/>
</svg>
