<svg width="24" height="24" viewBox="0 0 24 24" fill="none" xmlns="http://www.w3.org/2000/svg">
<path d="M12.0809 5.13457L5.2287 6.08282C4.89251 6.1421 4.68483 6.4387 4.74411 6.77489L6.19665 13.5382C6.22629 13.7063 6.32515 13.7755 6.42402 13.8448L15.9152 20.4906C16.2118 20.6982 16.548 20.639 16.7557 20.3424L22.0862 12.7296C22.2938 12.433 22.2346 12.0969 21.938 11.8892L12.4468 5.24338C12.3479 5.17415 12.249 5.10493 12.0809 5.13457Z" stroke="white" stroke-miterlimit="10"/>
<path d="M8.18454 10.0679C8.73057 10.4503 9.48315 10.3176 9.86548 9.77155C10.2478 9.22553 10.1151 8.47295 9.56908 8.09062C9.02306 7.70829 8.27048 7.84099 7.88815 8.38701C7.50582 8.93304 7.63852 9.68562 8.18454 10.0679Z" stroke="white" stroke-miterlimit="10"/>
<path d="M9.43063 8.28834C9.01527 8.88154 7.35423 8.30783 5.57464 7.06174C3.79504 5.81566 2.75704 4.35215 3.10318 3.85781C3.44931 3.36348 5.17958 3.83833 6.95918 5.08441C7.25578 5.2921 7.65124 5.569 7.94784 5.77668" stroke="white" stroke-miterlimit="10"/>
</svg>
