<svg width="24" height="20" viewBox="0 0 24 20" fill="none" xmlns="http://www.w3.org/2000/svg">
<path d="M20.3303 2.26687C18.7767 1.54 17.1156 1.01173 15.3789 0.710938C15.1656 1.09655 14.9164 1.6152 14.7446 2.02779C12.8985 1.75016 11.0693 1.75016 9.25716 2.02779C9.08539 1.6152 8.83056 1.09655 8.61536 0.710938C6.87681 1.01173 5.21376 1.54194 3.66019 2.27072C0.526643 7.00592 -0.322811 11.6235 0.101917 16.1755C2.18025 17.7276 4.19441 18.6704 6.17458 19.2874C6.66349 18.6145 7.09953 17.8992 7.47518 17.1453C6.75975 16.8735 6.07453 16.538 5.42707 16.1486C5.59884 16.0213 5.76686 15.8883 5.92918 15.7514C9.8782 17.5984 14.1689 17.5984 18.0707 15.7514C18.235 15.8883 18.403 16.0213 18.5728 16.1486C17.9235 16.5399 17.2364 16.8754 16.521 17.1473C16.8966 17.8992 17.3308 18.6164 17.8216 19.2893C19.8036 18.6723 21.8197 17.7295 23.898 16.1755C24.3964 10.8986 23.0467 6.3234 20.3303 2.26687ZM8.01318 13.3761C6.82772 13.3761 5.85555 12.2694 5.85555 10.9217C5.85555 9.57403 6.80696 8.46543 8.01318 8.46543C9.21942 8.46543 10.1916 9.57209 10.1708 10.9217C10.1727 12.2694 9.21942 13.3761 8.01318 13.3761ZM15.9867 13.3761C14.8013 13.3761 13.8291 12.2694 13.8291 10.9217C13.8291 9.57403 14.7805 8.46543 15.9867 8.46543C17.193 8.46543 18.1651 9.57209 18.1444 10.9217C18.1444 12.2694 17.193 13.3761 15.9867 13.3761Z" fill="#BFBFBF"/>
</svg>
