<svg width="22" height="22" viewBox="0 0 22 22" fill="none" xmlns="http://www.w3.org/2000/svg">
<path d="M10 15.001C10 15.5533 10.4477 16.001 11 16.001C11.5523 16.001 12 15.5533 12 15.001H10ZM12 11.001C12 10.4487 11.5523 10.001 11 10.001C10.4477 10.001 10 10.4487 10 11.001H12ZM11 6.00098C10.4477 6.00098 10 6.44869 10 7.00098C10 7.55326 10.4477 8.00098 11 8.00098V6.00098ZM11.01 8.00098C11.5623 8.00098 12.01 7.55326 12.01 7.00098C12.01 6.44869 11.5623 6.00098 11.01 6.00098V8.00098ZM11 22.001C17.0751 22.001 22 17.0761 22 11.001H20C20 15.9715 15.9705 20.001 11 20.001V22.001ZM22 11.001C22 4.92589 17.0751 0.000976562 11 0.000976562V2.00098C15.9705 2.00098 20 6.03046 20 11.001H22ZM11 0.000976562C4.92492 0.000976562 0 4.92589 0 11.001H2C2 6.03046 6.02948 2.00098 11 2.00098V0.000976562ZM0 11.001C0 17.0761 4.92492 22.001 11 22.001V20.001C6.02948 20.001 2 15.9715 2 11.001H0ZM12 15.001V11.001H10V15.001H12ZM11 8.00098H11.01V6.00098H11V8.00098Z" fill="#BFBFBF"/>
</svg>
