<svg width="24" height="24" viewBox="0 0 24 24" fill="none" xmlns="http://www.w3.org/2000/svg">
<path d="M12.0011 0C8.74209 0 8.33309 0.0142508 7.05307 0.0725032C5.77556 0.131006 4.90355 0.333264 4.14054 0.630026C3.35128 0.936538 2.68178 1.34655 2.01477 2.01383C1.34726 2.68086 0.93726 3.35039 0.629756 4.13942C0.332253 4.9027 0.129751 5.77498 0.0722506 7.05204C0.015 8.33209 0 8.74136 0 12.0005C0 15.2596 0.0145004 15.6674 0.072501 16.9474C0.131252 18.225 0.333504 19.097 0.630007 19.8601C0.93676 20.6493 1.34676 21.3189 2.01402 21.9859C2.68078 22.6534 3.35028 23.0644 4.13904 23.371C4.90255 23.6677 5.77481 23.87 7.05207 23.9285C8.33209 23.9867 8.74084 24.001 11.9996 24.001C15.2589 24.001 15.6667 23.9867 16.9467 23.9285C18.2242 23.87 19.0972 23.6677 19.8607 23.371C20.6497 23.0644 21.3182 22.6534 21.985 21.9859C22.6525 21.3189 23.0625 20.6493 23.37 19.8603C23.665 19.097 23.8675 18.2247 23.9275 16.9477C23.985 15.6676 24 15.2596 24 12.0005C24 8.74136 23.985 8.33234 23.9275 7.05229C23.8675 5.77474 23.665 4.9027 23.37 4.13967C23.0625 3.35039 22.6525 2.68086 21.985 2.01383C21.3175 1.3463 20.65 0.936288 19.86 0.630026C19.0949 0.333264 18.2224 0.131006 16.9449 0.0725032C15.6649 0.0142508 15.2574 0 11.9974 0H12.0011ZM10.9246 2.16259C11.2441 2.16209 11.6006 2.16259 12.0011 2.16259C15.2052 2.16259 15.5849 2.17409 16.8502 2.23159C18.0202 2.28509 18.6552 2.4806 19.0782 2.64486C19.6382 2.86237 20.0375 3.12238 20.4572 3.54239C20.8772 3.96241 21.1372 4.36243 21.3552 4.92245C21.5195 5.34497 21.7152 5.97999 21.7685 7.15004C21.826 8.41509 21.8385 8.79511 21.8385 11.9977C21.8385 15.2004 21.826 15.5804 21.7685 16.8454C21.715 18.0155 21.5195 18.6505 21.3552 19.073C21.1377 19.633 20.8772 20.0318 20.4572 20.4516C20.0372 20.8716 19.6385 21.1316 19.0782 21.3491C18.6557 21.5141 18.0202 21.7091 16.8502 21.7626C15.5852 21.8201 15.2052 21.8326 12.0011 21.8326C8.79684 21.8326 8.41709 21.8201 7.15208 21.7626C5.98206 21.7086 5.34706 21.5131 4.9238 21.3489C4.3638 21.1314 3.96379 20.8714 3.54379 20.4513C3.12378 20.0313 2.86378 19.6323 2.64578 19.072C2.48153 18.6495 2.28577 18.0145 2.23252 16.8444C2.17502 15.5794 2.16352 15.1994 2.16352 11.9947C2.16352 8.79011 2.17502 8.41209 2.23252 7.14704C2.28602 5.97699 2.48153 5.34197 2.64578 4.91895C2.86328 4.35893 3.12378 3.95891 3.54379 3.53889C3.96379 3.11888 4.3638 2.85887 4.9238 2.64086C5.34681 2.47585 5.98206 2.28084 7.15208 2.22709C8.25909 2.17709 8.68809 2.16209 10.9246 2.15959V2.16259ZM18.4067 4.15517C17.6117 4.15517 16.9667 4.79945 16.9667 5.59473C16.9667 6.38976 17.6117 7.03479 18.4067 7.03479C19.2017 7.03479 19.8467 6.38976 19.8467 5.59473C19.8467 4.7997 19.2017 4.15467 18.4067 4.15467V4.15517ZM12.0011 5.83774C8.59784 5.83774 5.83856 8.5971 5.83856 12.0005C5.83856 15.4039 8.59784 18.162 12.0011 18.162C15.4044 18.162 18.1627 15.4039 18.1627 12.0005C18.1627 8.5971 15.4042 5.83774 12.0009 5.83774H12.0011ZM12.0011 8.00033C14.2101 8.00033 16.0012 9.79115 16.0012 12.0005C16.0012 14.2096 14.2101 16.0007 12.0011 16.0007C9.79185 16.0007 8.00108 14.2096 8.00108 12.0005C8.00108 9.79115 9.79185 8.00033 12.0011 8.00033Z" fill="#BFBFBF"/>
</svg>
