<svg width="24" height="14" viewBox="0 0 24 14" fill="none" xmlns="http://www.w3.org/2000/svg">
<path d="M13.5374 7.00005C13.5374 10.764 10.5069 13.8153 6.76883 13.8153C3.03073 13.8153 0 10.764 0 7.00005C0 3.23608 3.0305 0.18457 6.76883 0.18457C10.5072 0.18457 13.5374 3.23608 13.5374 7.00005Z" fill="#BFBFBF"/>
<path d="M20.9629 7.00001C20.9629 10.543 19.4476 13.4163 17.5785 13.4163C15.7093 13.4163 14.1941 10.543 14.1941 7.00001C14.1941 3.45705 15.7091 0.583765 17.5782 0.583765C19.4474 0.583765 20.9627 3.45613 20.9627 7.00001" fill="#BFBFBF"/>
<path d="M24 6.9999C24 10.1735 23.4672 12.7478 22.8097 12.7478C22.1522 12.7478 21.6196 10.1742 21.6196 6.9999C21.6196 3.82558 22.1524 1.25195 22.8097 1.25195C23.4669 1.25195 24 3.82535 24 6.9999Z" fill="#BFBFBF"/>
</svg>
