<svg width="24" height="22" viewBox="0 0 24 22" fill="none" xmlns="http://www.w3.org/2000/svg">
<path fill-rule="evenodd" clip-rule="evenodd" d="M21.5749 0.94362C19.8228 1.48051 15.7304 3.14812 7.70908 6.59392C0.747529 9.58434 0.292595 9.79879 0.0905015 10.1844C-0.121809 10.5898 0.0505319 11.0678 0.491208 11.2957C1.05494 11.5872 3.6122 12.4648 4.56541 12.6939C6.23223 13.0945 6.68975 12.9741 8.74829 11.593C15.1127 7.32314 17.1845 5.95093 17.4471 5.83125C17.7913 5.6744 18.0944 5.82922 18.0944 6.16178C18.0944 6.3568 15.5089 8.95842 12.5572 11.7333C10.237 13.9144 9.97298 14.3687 10.5304 15.2193C10.6253 15.3642 11.722 16.2273 12.9672 17.1371C14.2126 18.0469 15.8119 19.2201 16.5214 19.7441C18.5443 21.2383 19.2669 21.532 20.0298 21.17C20.4854 20.9538 20.9362 20.2131 21.125 19.3705C21.7701 16.4923 23.5031 6.49265 23.8812 3.46754C24.1146 1.59997 24.0252 1.08441 23.4244 0.833368C22.9099 0.618363 22.5699 0.638684 21.5749 0.94362Z" fill="#BFBFBF"/>
</svg>
