<svg width="24" height="20" viewBox="0 0 24 20" fill="none" xmlns="http://www.w3.org/2000/svg">
<path fill-rule="evenodd" clip-rule="evenodd" d="M16.2402 0.24077C14.8378 0.344965 13.5271 1.06356 12.6628 2.20214C11.9552 3.13426 11.5982 4.35458 11.692 5.52036C11.7098 5.74088 11.737 5.97442 11.7525 6.03936C11.8052 6.26029 11.7978 6.27812 11.6566 6.26861C8.82259 6.07787 6.21877 5.10842 4.01733 3.42441C3.31242 2.88517 2.48708 2.11191 1.95662 1.49374C1.81733 1.33139 1.68633 1.1795 1.66549 1.15621C1.63381 1.12076 1.60128 1.16881 1.46564 1.45138C1.28 1.83811 1.15263 2.20982 1.0583 2.64006C0.968639 3.04887 0.961258 4.11927 1.04522 4.53399C1.29139 5.74976 1.96498 6.82631 2.94 7.56228C3.02913 7.62958 3.10209 7.69124 3.10209 7.69933C3.10209 7.7251 2.65421 7.67531 2.36399 7.61727C2.00008 7.54452 1.59189 7.40927 1.24551 7.24675C1.09314 7.17523 0.955147 7.11673 0.93885 7.11673C0.873602 7.11673 0.964624 7.92109 1.08387 8.39818C1.29807 9.25517 1.74151 10.0189 2.40506 10.6735C3.03126 11.2913 3.67151 11.6671 4.51333 11.9108L4.84694 12.0074L4.61666 12.0559C4.20073 12.1436 3.84231 12.1721 3.39733 12.1531C3.16187 12.143 2.90392 12.1215 2.82409 12.1052C2.74426 12.0889 2.67449 12.08 2.66903 12.0855C2.64577 12.1087 2.79043 12.4703 2.95444 12.7987C3.53508 13.9617 4.55897 14.8449 5.81246 15.2639C6.17029 15.3835 6.74972 15.4992 6.99477 15.5C7.22913 15.5008 7.23146 15.5341 7.00871 15.6985C5.64834 16.7024 4.01402 17.3408 2.26066 17.5532C1.8049 17.6085 0.568326 17.6206 0.185846 17.5737C0.0198037 17.5533 -0.0204077 17.5553 0.00870277 17.5823C0.104685 17.6715 0.808591 18.0671 1.3159 18.317C3.88222 19.581 6.60444 20.0207 9.54462 19.6461C12.9391 19.2136 15.9916 17.5491 18.1771 14.9387C19.8142 12.9833 20.9578 10.5081 21.3752 8.01699C21.5179 7.16513 21.6042 6.01801 21.5707 5.4195L21.5526 5.09481L21.738 4.96198C22.2035 4.62862 22.9743 3.88993 23.4199 3.35015C23.6496 3.07186 24.0158 2.57096 23.9995 2.55729C23.9944 2.55304 23.8295 2.61355 23.6331 2.6918C22.9929 2.94683 22.0701 3.18961 21.3478 3.293L21.2149 3.31204L21.4364 3.15982C22.1289 2.6838 22.6877 2.04517 23.0585 1.30589C23.184 1.0557 23.362 0.61968 23.3453 0.603091C23.3404 0.598103 23.1911 0.673519 23.0137 0.770689C22.3206 1.15025 21.4125 1.49937 20.634 1.68563L20.2302 1.78221L19.9845 1.55587C19.6175 1.21778 19.2548 0.970017 18.794 0.742529C18.0962 0.398036 17.6339 0.283688 16.7126 0.227605C16.6232 0.222174 16.4107 0.228078 16.2402 0.24077Z" fill="#BFBFBF"/>
</svg>
