<svg width="24" height="22" viewBox="0 0 24 22" fill="none" xmlns="http://www.w3.org/2000/svg">
<path fill-rule="evenodd" clip-rule="evenodd" d="M10.0893 3.201C9.0439 4.992 8.1754 6.4574 8.1592 6.4573C8.1431 6.4572 7.3373 5.0767 6.3687 3.3896C5.4 1.7026 4.5877 0.328343 4.5635 0.335813C4.5046 0.353893 0.000630026 8.1752 2.64365e-08 8.2603C-0.000529974 8.3309 7.9682 21.9671 8.0092 21.9658C8.0225 21.9654 8.9163 20.4551 9.9954 18.6095L11.9575 15.2538L12.7738 16.6716C13.2227 17.4514 14.0979 18.9727 14.7187 20.0522C15.3395 21.1318 15.8681 22.0083 15.8934 21.9999C15.9677 21.9756 23.995 8.2516 24 8.1406C24.005 8.0301 19.5394 0.313643 19.4814 0.332533C19.4618 0.338953 18.6508 1.7036 17.6794 3.3651C16.7079 5.0267 15.8966 6.4033 15.8765 6.4244C15.8564 6.4455 14.9977 5.0218 13.9682 3.2607C12.9387 1.4996 12.0725 0.0330534 12.0432 0.0016034C12.0033 -0.0411166 11.5121 0.763273 10.0893 3.201ZM13.0756 3.8522C13.6462 4.8264 14.3654 6.0547 14.6739 6.582L15.2349 7.5406L13.6241 10.2936C12.7381 11.8077 11.9923 13.0465 11.9668 13.0465C11.9412 13.0465 11.2123 11.8155 10.347 10.311C9.2037 8.3231 8.7854 7.556 8.8164 7.5041C8.8398 7.4648 9.5615 6.2285 10.42 4.7567C11.2785 3.2849 11.9939 2.0807 12.0096 2.0808C12.0253 2.081 12.505 2.8781 13.0756 3.8522ZM7.9135 8.2177C9.7246 11.3707 11.2377 14.0041 11.276 14.0698C11.3432 14.185 11.2895 14.2852 9.7193 16.9718C8.8247 18.5022 8.0686 19.7792 8.039 19.8095C7.9989 19.8504 7.1168 18.3803 4.591 14.0624L1.19682 8.2602L1.85849 7.1091C4.0781 3.2474 4.5623 2.4217 4.5899 2.4516C4.6068 2.47 6.1025 5.0647 7.9135 8.2177ZM21.1973 5.3263L22.8195 8.12L19.3639 14.023C17.4633 17.2696 15.8912 19.9088 15.8704 19.8878C15.7869 19.8035 12.5883 14.2028 12.6022 14.1652C12.6105 14.143 14.1589 11.4908 16.0431 8.2715C18.6025 3.8985 19.4823 2.4327 19.5219 2.4755C19.5511 2.5069 20.305 3.7898 21.1973 5.3263Z" fill="#BFBFBF"/>
</svg>
