<svg width="22" height="20" viewBox="0 0 22 20" fill="none" xmlns="http://www.w3.org/2000/svg">
<path d="M1 1V0C0.447715 0 0 0.447715 0 1L1 1ZM9.8284 2.1716L9.12125 2.87866L9.12134 2.87875L9.8284 2.1716ZM10 19C10 19.5523 10.4477 20 11 20C11.5523 20 12 19.5523 12 19H10ZM1 16H0C0 16.5523 0.447715 17 1 17L1 16ZM21 1H22C22 0.447715 21.5523 0 21 0V1ZM12.1716 2.1716L12.8787 2.87875L12.8788 2.87866L12.1716 2.1716ZM21 16V17C21.5523 17 22 16.5523 22 16H21ZM1 2H7V0H1V2ZM7 2C7.7957 2 8.55872 2.31606 9.12125 2.87866L10.5356 1.46454C9.59788 0.526746 8.3261 0 7 0V2ZM9.12134 2.87875C9.68394 3.44128 10 4.2043 10 5H12C12 3.6739 11.4733 2.40212 10.5355 1.46445L9.12134 2.87875ZM10 5V19H12V5H10ZM12 19C12 17.9392 11.5785 16.9217 10.8284 16.1716L9.41419 17.5858C9.78927 17.9609 10 18.4696 10 19H12ZM10.8284 16.1716C10.0783 15.4215 9.06083 15 8 15V17C8.53036 17 9.03912 17.2107 9.41419 17.5858L10.8284 16.1716ZM8 15H1V17H8V15ZM2 16V1H0V16H2ZM21 0H15V2H21V0ZM15 0C13.6739 0 12.4021 0.526746 11.4644 1.46454L12.8788 2.87866C13.4413 2.31606 14.2043 2 15 2V0ZM11.4645 1.46445C10.5267 2.40212 10 3.6739 10 5H12C12 4.2043 12.3161 3.44128 12.8787 2.87875L11.4645 1.46445ZM12 19C12 18.4696 12.2107 17.9609 12.5858 17.5858L11.1716 16.1716C10.4215 16.9217 10 17.9392 10 19H12ZM12.5858 17.5858C12.9609 17.2107 13.4696 17 14 17V15C12.9392 15 11.9217 15.4215 11.1716 16.1716L12.5858 17.5858ZM14 17H21V15H14V17ZM22 16V1H20V16H22Z" fill="#BFBFBF"/>
</svg>
