<svg width="26" height="17" viewBox="0 0 26 17" fill="none" xmlns="http://www.w3.org/2000/svg">
<path d="M5.67041 2.25958C5.67041 2.25958 8.18105 2.48879 10.2354 1.80329C12.2897 1.11779 12.519 0.547974 14.4598 0.547974C16.0835 0.547974 19.9352 3.85978 21.0727 4.90303C21.304 5.1151 21.499 5.35931 21.6554 5.63137C22.4373 6.99165 24.8879 10.8926 24.5045 11.2782C24.0482 11.7344 22.1074 11.0489 21.3083 10.2499C20.5093 9.45088 20.4343 8.88748 19.481 7.73927C19.0826 7.25942 18.3114 6.78172 17.4246 6.41326C16.1885 5.90128 15.0746 5.4857 14.0913 5.68492C12.4033 6.02767 14.2306 8.53831 15.3723 9.79362C16.5141 11.0489 17.1996 11.2782 17.883 12.7605C18.2686 13.5939 18.4914 14.5942 18.3114 15.5111C18.215 16.0081 17.5681 16.143 17.2789 15.7275L16.5141 14.9284C15.7215 13.9045 14.0806 13.0819 12.8617 12.6449C12.8617 12.6449 8.41026 11.1603 7.49769 10.7041C6.58512 10.2478 5.67041 8.87677 5.67041 8.87677" fill="white" fill-opacity="0.01"/>
<path d="M5.67041 2.25958C5.67041 2.25958 8.18105 2.48879 10.2354 1.80329C12.2897 1.11779 12.519 0.547974 14.4598 0.547974C16.0835 0.547974 19.9352 3.85978 21.0727 4.90303C21.304 5.1151 21.499 5.35931 21.6554 5.63137C22.4373 6.99165 24.8879 10.8926 24.5045 11.2782C24.0482 11.7344 22.1074 11.0489 21.3083 10.2499C20.5093 9.45088 20.4343 8.88748 19.481 7.73927C19.0826 7.25942 18.3114 6.78172 17.4246 6.41326C16.1885 5.90128 15.0746 5.4857 14.0913 5.68492C12.4033 6.02767 14.2306 8.53831 15.3723 9.79362C16.5141 11.0489 17.1996 11.2782 17.883 12.7605C18.2686 13.5939 18.4914 14.5942 18.3114 15.5111C18.215 16.0081 17.5681 16.143 17.2789 15.7275L16.5141 14.9284C15.7215 13.9045 14.0806 13.0819 12.8617 12.6449C12.8617 12.6449 8.41026 11.1603 7.49769 10.7041C6.58512 10.2478 5.67041 8.87677 5.67041 8.87677" stroke="white" stroke-miterlimit="10" stroke-linecap="round" stroke-linejoin="round"/>
<path d="M2.04801 10.3506H4.95495C5.34911 10.3506 5.67044 10.0314 5.67044 9.63507V1.93393C5.67044 1.53977 5.35125 1.21844 4.95495 1.21844H2.04801C1.65385 1.21844 1.33252 1.53763 1.33252 1.93393V9.63507C1.33252 10.0292 1.65385 10.3506 2.04801 10.3506Z" fill="white" fill-opacity="0.01" stroke="white" stroke-miterlimit="10" stroke-linecap="round" stroke-linejoin="round"/>
<path d="M15.6401 0.890747C15.6401 0.890747 19.826 1.34703 20.2822 1.91899C20.7385 2.48881 21.6575 5.63354 21.6575 5.63354" fill="white" fill-opacity="0.01"/>
<path d="M15.6401 0.890747C15.6401 0.890747 19.826 1.34703 20.2822 1.91899C20.7385 2.48881 21.6575 5.63354 21.6575 5.63354" stroke="white" stroke-miterlimit="10" stroke-linecap="round" stroke-linejoin="round"/>
</svg>
