<svg id="Layer_2" data-name="Layer 2" xmlns="http://www.w3.org/2000/svg" viewBox="0 0 33 33"><defs><style>.cls-1{fill:none;stroke:#fff;stroke-miterlimit:10;}</style></defs><g id="Wallet_Connect" data-name="Wallet Connect"><path class="cls-1" d="M16.59,18.82l4.13,4a.12.12,0,0,0,.17,0l5.61-5.41a.28.28,0,0,0,0-.4l-1.37-1.49a.24.24,0,0,0-.34,0l-4,3.79a.14.14,0,0,1-.17,0l-4.07-3.88a.12.12,0,0,0-.16,0l-4.07,3.88a.14.14,0,0,1-.17,0l-4-3.79a.24.24,0,0,0-.34,0L6.49,17a.28.28,0,0,0,0,.4l5.61,5.41a.12.12,0,0,0,.17,0l4.14-4A.11.11,0,0,1,16.59,18.82Z"/><path class="cls-1" d="M16.5,12.64a6.17,6.17,0,0,0-4.71,2.12.23.23,0,0,1-.35,0l-1.35-1.34a.24.24,0,0,1,0-.3,7.53,7.53,0,0,1,6.44-3,7.53,7.53,0,0,1,6.44,3,.24.24,0,0,1,0,.3l-1.34,1.34a.24.24,0,0,1-.36,0A6.17,6.17,0,0,0,16.5,12.64Z"/></g></svg>