<svg xmlns="http://www.w3.org/2000/svg" width="24" height="24"><path d="M 4 6 L 19.5 6" fill="transparent" stroke="#AAA"></path><path d="M 4 12 L 19.5 12" fill="transparent" stroke="#AAA"></path><path d="M 4 17.5 L 19.5 17.5" fill="transparent" stroke="#AAA"></path><path d="M 16 4 C 17.105 4 18 4.895 18 6 C 18 7.105 17.105 8 16 8 C 14.895 8 14 7.105 14 6 C 14 4.895 14.895 4 16 4 Z" fill="hsl(0, 0%, 0%)" stroke="#AAA"></path><path d="M 9 16 C 10.105 16 11 16.895 11 18 C 11 19.105 10.105 20 9 20 C 7.895 20 7 19.105 7 18 C 7 16.895 7.895 16 9 16 Z" fill="hsl(0, 0%, 0%)" stroke="rgba(170, 170, 170, 1.00)"></path></svg>