<svg width="49" height="48" viewBox="0 0 49 48" fill="none" xmlns="http://www.w3.org/2000/svg">
<path d="M31.0276 25.2019L23.4839 28.8315C22.8193 29.1518 22.0193 28.8713 21.699 28.2066L19.8066 24.2686C19.4862 23.604 19.7668 22.8041 20.4314 22.4837L27.9751 18.8542L31.0276 25.2019Z" fill="white" fill-opacity="0.01"/>
<path d="M28.2635 19.4529L27.6785 18.2371C27.5452 17.9605 27.6626 17.6282 27.9392 17.4948L31.4155 15.8233C31.6921 15.69 32.0244 15.8074 32.1577 16.084L35.8052 23.6655C35.9385 23.9421 35.8211 24.2744 35.5445 24.4077L32.0682 26.0792C31.7916 26.2125 31.4593 26.0951 31.326 25.8185L30.7409 24.6027" fill="white" fill-opacity="0.01"/>
<path d="M19.8379 24.3328L15.4641 26.4367L17.2954 30.2439L21.6692 28.14L19.8379 24.3328Z" fill="white" fill-opacity="0.01"/>
<path d="M17.3292 31.239L15.3472 32.1921C15.1483 32.2877 14.9095 32.2041 14.814 32.0051L12.5395 27.2771C12.444 27.0781 12.5276 26.8393 12.7266 26.7438L14.7065 25.7907C14.9055 25.6952 15.1443 25.7787 15.2398 25.9777L17.5142 30.7057C17.6117 30.9047 17.5282 31.1435 17.3292 31.239Z" fill="white" fill-opacity="0.01"/>
<path d="M32.3926 16.5757C33.9686 16.5618 35.4411 17.3716 36.1256 18.7964C36.8101 20.2212 36.5236 21.8768 35.5306 23.0985" fill="white" fill-opacity="0.01"/>
<path d="M28.2635 19.4529L27.6785 18.2371C27.5452 17.9605 27.6626 17.6282 27.9392 17.4948L31.4155 15.8233C31.6921 15.69 32.0244 15.8074 32.1577 16.084L35.8052 23.6655C35.9385 23.9421 35.8211 24.2744 35.5445 24.4077L32.0682 26.0792C31.7916 26.2125 31.4593 26.0951 31.326 25.8185L30.7409 24.6027M32.3926 16.5757C33.9686 16.5618 35.4411 17.3716 36.1256 18.7964C36.8101 20.2212 36.5236 21.8768 35.5306 23.0985M31.0276 25.2019L23.4839 28.8315C22.8193 29.1518 22.0193 28.8713 21.699 28.2066L19.8066 24.2686C19.4862 23.604 19.7668 22.8041 20.4314 22.4837L27.9751 18.8542L31.0276 25.2019ZM15.4641 26.4367L19.8379 24.3328L21.6692 28.14L17.2954 30.2439L15.4641 26.4367ZM17.3292 31.239L15.3472 32.1921C15.1483 32.2877 14.9095 32.2041 14.814 32.0051L12.5395 27.2771C12.444 27.0781 12.5276 26.8393 12.7266 26.7438L14.7065 25.7907C14.9055 25.6952 15.1443 25.7787 15.2398 25.9777L17.5142 30.7057C17.6117 30.9047 17.5282 31.1435 17.3292 31.239Z" stroke="white" stroke-miterlimit="10" stroke-linecap="round" stroke-linejoin="round"/>
</svg>
