<svg width="49" height="48" viewBox="0 0 49 48" fill="none" xmlns="http://www.w3.org/2000/svg">
<path d="M19.2151 24.9472L15.8663 14.5438L12.5197 24.9472" fill="white" fill-opacity="0.01"/>
<path d="M36.4803 24.9121L33.1337 14.5088L29.7849 24.9121" fill="white" fill-opacity="0.01"/>
<path d="M31.6707 35.0638H17.2987C17.2483 35.0638 17.2089 35.0244 17.2089 34.974V31.4346C17.2089 31.3843 17.2483 31.3448 17.2987 31.3448H31.6707C31.7211 31.3448 31.7605 31.3843 31.7605 31.4346V34.974C31.7605 35.0244 31.7211 35.0638 31.6707 35.0638Z" fill="white" fill-opacity="0.01"/>
<path d="M19.2326 25.0044C19.2326 26.9405 17.7258 28.5087 15.8663 28.5087C14.0068 28.5087 12.5 26.9405 12.5 25.0044H19.2326Z" fill="white" fill-opacity="0.01"/>
<path d="M36.5 25.0044C36.5 26.9405 34.9932 28.5087 33.1337 28.5087C31.2742 28.5087 29.7674 26.9405 29.7674 25.0044H36.5Z" fill="white" fill-opacity="0.01"/>
<path d="M24.4846 31.3075V12.9363M33.0373 14.5067L15.8641 14.5264M19.2151 24.9472L15.8663 14.5438L12.5197 24.9472M36.4803 24.9121L33.1337 14.5088L29.7849 24.9121M31.6707 35.0638H17.2987C17.2483 35.0638 17.2089 35.0244 17.2089 34.974V31.4346C17.2089 31.3843 17.2483 31.3448 17.2987 31.3448H31.6707C31.7211 31.3448 31.7605 31.3843 31.7605 31.4346V34.974C31.7605 35.0244 31.7211 35.0638 31.6707 35.0638ZM19.2326 25.0044C19.2326 26.9405 17.7258 28.5087 15.8663 28.5087C14.0068 28.5087 12.5 26.9405 12.5 25.0044H19.2326ZM36.5 25.0044C36.5 26.9405 34.9932 28.5087 33.1337 28.5087C31.2742 28.5087 29.7674 26.9405 29.7674 25.0044H36.5Z" stroke="white" stroke-miterlimit="10" stroke-linecap="round" stroke-linejoin="round"/>
</svg>
