<svg width="62" height="53" viewBox="0 0 62 53" fill="none" xmlns="http://www.w3.org/2000/svg">
<g filter="url(#filter0_d)">
<path d="M23.6704 20.2596C23.6704 20.2596 26.181 20.4888 28.2354 19.8033C30.2897 19.1178 30.519 18.548 32.4598 18.548C34.0835 18.548 37.9352 21.8598 39.0727 22.903C39.304 23.1151 39.499 23.3593 39.6554 23.6314C40.4373 24.9917 42.8879 28.8926 42.5045 29.2782C42.0482 29.7344 40.1074 29.0489 39.3083 28.2499C38.5093 27.4509 38.4343 26.8875 37.481 25.7393C37.0826 25.2594 36.3114 24.7817 35.4246 24.4133C34.1885 23.9013 33.0746 23.4857 32.0913 23.6849C30.4033 24.0277 32.2306 26.5383 33.3723 27.7936C34.5141 29.0489 35.1996 29.2782 35.883 30.7605C36.2686 31.5939 36.4914 32.5942 36.3114 33.5111C36.215 34.0081 35.5681 34.143 35.2789 33.7275L34.5141 32.9284C33.7215 31.9045 32.0806 31.0819 30.8617 30.6449C30.8617 30.6449 26.4103 29.1603 25.4977 28.7041C24.5851 28.2478 23.6704 26.8768 23.6704 26.8768" fill="white" fill-opacity="0.01"/>
<path d="M23.6704 20.2596C23.6704 20.2596 26.181 20.4888 28.2354 19.8033C30.2897 19.1178 30.519 18.548 32.4598 18.548C34.0835 18.548 37.9352 21.8598 39.0727 22.903C39.304 23.1151 39.499 23.3593 39.6554 23.6314C40.4373 24.9917 42.8879 28.8926 42.5045 29.2782C42.0482 29.7344 40.1074 29.0489 39.3083 28.2499C38.5093 27.4509 38.4343 26.8875 37.481 25.7393C37.0826 25.2594 36.3114 24.7817 35.4246 24.4133C34.1885 23.9013 33.0746 23.4857 32.0913 23.6849C30.4033 24.0277 32.2306 26.5383 33.3723 27.7936C34.5141 29.0489 35.1996 29.2782 35.883 30.7605C36.2686 31.5939 36.4914 32.5942 36.3114 33.5111C36.215 34.0081 35.5681 34.143 35.2789 33.7275L34.5141 32.9284C33.7215 31.9045 32.0806 31.0819 30.8617 30.6449C30.8617 30.6449 26.4103 29.1603 25.4977 28.7041C24.5851 28.2478 23.6704 26.8768 23.6704 26.8768" stroke="white" stroke-miterlimit="10" stroke-linecap="round" stroke-linejoin="round"/>
<path d="M20.048 28.3506H22.9549C23.3491 28.3506 23.6704 28.0314 23.6704 27.6351V19.9339C23.6704 19.5398 23.3512 19.2184 22.9549 19.2184H20.048C19.6538 19.2184 19.3325 19.5376 19.3325 19.9339V27.6351C19.3325 28.0292 19.6538 28.3506 20.048 28.3506Z" fill="white" fill-opacity="0.01" stroke="white" stroke-miterlimit="10" stroke-linecap="round" stroke-linejoin="round"/>
<path d="M33.6401 18.8907C33.6401 18.8907 37.826 19.347 38.2822 19.919C38.7385 20.4888 39.6575 23.6335 39.6575 23.6335" fill="white" fill-opacity="0.01"/>
<path d="M33.6401 18.8907C33.6401 18.8907 37.826 19.347 38.2822 19.919C38.7385 20.4888 39.6575 23.6335 39.6575 23.6335" stroke="white" stroke-miterlimit="10" stroke-linecap="round" stroke-linejoin="round"/>
<path d="M38.7384 33.3868C40.0623 33.3868 41.1355 32.3136 41.1355 30.9897C41.1355 29.6658 40.0623 28.5926 38.7384 28.5926C37.4145 28.5926 36.3413 29.6658 36.3413 30.9897C36.3413 32.3136 37.4145 33.3868 38.7384 33.3868Z" fill="white" fill-opacity="0.01" stroke="white" stroke-miterlimit="10" stroke-linecap="round" stroke-linejoin="round"/>
</g>
<defs>
<filter id="filter0_d" x="0.83252" y="0.0479736" width="60.2124" height="52.4262" filterUnits="userSpaceOnUse" color-interpolation-filters="sRGB">
<feFlood flood-opacity="0" result="BackgroundImageFix"/>
<feColorMatrix in="SourceAlpha" type="matrix" values="0 0 0 0 0 0 0 0 0 0 0 0 0 0 0 0 0 0 127 0"/>
<feOffset/>
<feGaussianBlur stdDeviation="9"/>
<feColorMatrix type="matrix" values="0 0 0 0 0 0 0 0 0 0.698039 0 0 0 0 1 0 0 0 1 0"/>
<feBlend mode="normal" in2="BackgroundImageFix" result="effect1_dropShadow"/>
<feBlend mode="normal" in="SourceGraphic" in2="effect1_dropShadow" result="shape"/>
</filter>
</defs>
</svg>
