<svg width="42" height="42" viewBox="0 0 42 42" fill="none"
  xmlns="http://www.w3.org/2000/svg">
  <g filter="url(#filter0_d_7354_70971)">
    <path d="M14.75 28.5V31M27.25 28.5V31M21 22.25C23.0711 22.25 24.75 20.5711 24.75 18.5C24.75 16.4289 23.0711 14.75 21 14.75C18.9289 14.75 17.25 16.4289 17.25 18.5C17.25 20.5711 18.9289 22.25 21 22.25ZM21 22.25V25.375M13.5 28.5H28.5C29.8807 28.5 31 27.3807 31 26V13.5C31 12.1193 29.8807 11 28.5 11H13.5C12.1193 11 11 12.1193 11 13.5V26C11 27.3807 12.1193 28.5 13.5 28.5Z" stroke="#808080" stroke-miterlimit="10" stroke-linecap="round" stroke-linejoin="round"/>
    <path d="M14.75 28.5V31M27.25 28.5V31M21 22.25C23.0711 22.25 24.75 20.5711 24.75 18.5C24.75 16.4289 23.0711 14.75 21 14.75C18.9289 14.75 17.25 16.4289 17.25 18.5C17.25 20.5711 18.9289 22.25 21 22.25ZM21 22.25V25.375M13.5 28.5H28.5C29.8807 28.5 31 27.3807 31 26V13.5C31 12.1193 29.8807 11 28.5 11H13.5C12.1193 11 11 12.1193 11 13.5V26C11 27.3807 12.1193 28.5 13.5 28.5Z" stroke="white" stroke-miterlimit="10" stroke-linecap="round" stroke-linejoin="round"/>
  </g>
  <defs>
    <filter id="filter0_d_7354_70971" x="0.5" y="0.5" width="41" height="41" filterUnits="userSpaceOnUse" color-interpolation-filters="sRGB">
      <feFlood flood-opacity="0" result="BackgroundImageFix"/>
      <feColorMatrix in="SourceAlpha" type="matrix" values="0 0 0 0 0 0 0 0 0 0 0 0 0 0 0 0 0 0 127 0" result="hardAlpha"/>
      <feOffset/>
      <feGaussianBlur stdDeviation="5"/>
      <feColorMatrix type="matrix" values="0 0 0 0 1 0 0 0 0 1 0 0 0 0 1 0 0 0 0.7 0"/>
      <feBlend mode="normal" in2="BackgroundImageFix" result="effect1_dropShadow_7354_70971"/>
      <feBlend mode="normal" in="SourceGraphic" in2="effect1_dropShadow_7354_70971" result="shape"/>
    </filter>
  </defs>
</svg>
