<svg width="42" height="42" viewBox="0 0 42 40" fill="none"
  xmlns="http://www.w3.org/2000/svg">
  <g filter="url(#filter0_d_7578_2169)">
    <path d="M20.9872 25.9444V11M28.1144 12.2775L13.8034 12.2935M16.5959 20.7705L13.8052 12.3077L11.0164 20.7705M30.9836 20.742L28.1948 12.2792L25.4041 20.742M26.9756 29H14.9989C14.957 29 14.9241 28.9679 14.9241 28.927V26.0478C14.9241 26.0068 14.957 25.9748 14.9989 25.9748H26.9756C27.0175 25.9748 27.0504 26.0068 27.0504 26.0478V28.927C27.0504 28.9679 27.0175 29 26.9756 29ZM16.6105 20.817C16.6105 22.392 15.3548 23.6676 13.8053 23.6676C12.2557 23.6676 11 22.392 11 20.817H16.6105ZM31 20.817C31 22.392 29.7443 23.6676 28.1947 23.6676C26.6452 23.6676 25.3895 22.392 25.3895 20.817H31Z" stroke="#F2F2F2" stroke-miterlimit="10" stroke-linecap="round" stroke-linejoin="round"/>
  </g>
  <defs>
    <filter id="filter0_d_7578_2169" x="0.5" y="0.5" width="41" height="39" filterUnits="userSpaceOnUse" color-interpolation-filters="sRGB">
      <feFlood flood-opacity="0" result="BackgroundImageFix"/>
      <feColorMatrix in="SourceAlpha" type="matrix" values="0 0 0 0 0 0 0 0 0 0 0 0 0 0 0 0 0 0 127 0" result="hardAlpha"/>
      <feOffset/>
      <feGaussianBlur stdDeviation="5"/>
      <feColorMatrix type="matrix" values="0 0 0 0 1 0 0 0 0 1 0 0 0 0 1 0 0 0 0.7 0"/>
      <feBlend mode="normal" in2="BackgroundImageFix" result="effect1_dropShadow_7578_2169"/>
      <feBlend mode="normal" in="SourceGraphic" in2="effect1_dropShadow_7578_2169" result="shape"/>
    </filter>
  </defs>
</svg>
