<svg width="44" height="44" viewBox="0 0 44 44" fill="none" xmlns="http://www.w3.org/2000/svg">
<g filter="url(#filter0_d_2006_12513)">
<path d="M22 13.4444C22.675 13.4444 23.2222 12.8972 23.2222 12.2222C23.2222 11.5472 22.675 11 22 11C21.325 11 20.7778 11.5472 20.7778 12.2222C20.7778 12.8972 21.325 13.4444 22 13.4444ZM22 13.4444V17.1111M13.4444 22C13.4444 21.325 12.8972 20.7778 12.2222 20.7778C11.5472 20.7778 11 21.325 11 22C11 22.675 11.5472 23.2222 12.2222 23.2222C12.8972 23.2222 13.4444 22.675 13.4444 22ZM13.4444 22H17.1111M22 30.5556C21.325 30.5556 20.7778 31.1028 20.7778 31.7778C20.7778 32.4528 21.325 33 22 33C22.675 33 23.2222 32.4528 23.2222 31.7778C23.2222 31.1028 22.675 30.5556 22 30.5556ZM22 30.5556V26.8889M28.0497 28.0495C27.5724 28.5269 27.5724 29.3007 28.0497 29.778C28.527 30.2553 29.3009 30.2553 29.7782 29.778C30.2555 29.3007 30.2555 28.5269 29.7782 28.0495C29.3009 27.5722 28.527 27.5722 28.0497 28.0495ZM28.0497 28.0495L25.3611 25.3611M26.8889 22C26.8889 24.7001 24.7001 26.8889 22 26.8889M26.8889 22C26.8889 19.2999 24.7001 17.1111 22 17.1111M26.8889 22H30.8611M22 26.8889C19.2999 26.8889 17.1111 24.7001 17.1111 22M17.1111 22C17.1111 19.2999 19.2999 17.1111 22 17.1111M15.8889 28.1111L18.543 25.457M15.8889 15.8889L18.543 18.543M28.1111 15.8889L25.457 18.543M15.9503 14.222C16.4276 14.6993 16.4276 15.4731 15.9503 15.9505C15.473 16.4278 14.6992 16.4278 14.2219 15.9505C13.7445 15.4731 13.7445 14.6993 14.2219 14.222C14.6992 13.7447 15.473 13.7447 15.9503 14.222ZM29.7782 15.9503C29.3009 16.4276 28.527 16.4276 28.0497 15.9503C27.5724 15.473 27.5724 14.6992 28.0497 14.2219C28.527 13.7445 29.3009 13.7445 29.7782 14.2219C30.2555 14.6992 30.2555 15.473 29.7782 15.9503ZM15.9503 29.7782C15.473 30.2555 14.6991 30.2555 14.2218 29.7782C13.7445 29.3009 13.7445 28.527 14.2218 28.0497C14.6991 27.5724 15.473 27.5724 15.9503 28.0497C16.4276 28.527 16.4276 29.3009 15.9503 29.7782ZM31.7778 20.7778C32.4528 20.7778 33 21.325 33 22C33 22.675 32.4528 23.2222 31.7778 23.2222C31.1028 23.2222 30.5556 22.675 30.5556 22C30.5556 21.325 31.1028 20.7778 31.7778 20.7778Z" stroke="#808080"/>
<path d="M22 13.4444C22.675 13.4444 23.2222 12.8972 23.2222 12.2222C23.2222 11.5472 22.675 11 22 11C21.325 11 20.7778 11.5472 20.7778 12.2222C20.7778 12.8972 21.325 13.4444 22 13.4444ZM22 13.4444V17.1111M13.4444 22C13.4444 21.325 12.8972 20.7778 12.2222 20.7778C11.5472 20.7778 11 21.325 11 22C11 22.675 11.5472 23.2222 12.2222 23.2222C12.8972 23.2222 13.4444 22.675 13.4444 22ZM13.4444 22H17.1111M22 30.5556C21.325 30.5556 20.7778 31.1028 20.7778 31.7778C20.7778 32.4528 21.325 33 22 33C22.675 33 23.2222 32.4528 23.2222 31.7778C23.2222 31.1028 22.675 30.5556 22 30.5556ZM22 30.5556V26.8889M28.0497 28.0495C27.5724 28.5269 27.5724 29.3007 28.0497 29.778C28.527 30.2553 29.3009 30.2553 29.7782 29.778C30.2555 29.3007 30.2555 28.5269 29.7782 28.0495C29.3009 27.5722 28.527 27.5722 28.0497 28.0495ZM28.0497 28.0495L25.3611 25.3611M26.8889 22C26.8889 24.7001 24.7001 26.8889 22 26.8889M26.8889 22C26.8889 19.2999 24.7001 17.1111 22 17.1111M26.8889 22H30.8611M22 26.8889C19.2999 26.8889 17.1111 24.7001 17.1111 22M17.1111 22C17.1111 19.2999 19.2999 17.1111 22 17.1111M15.8889 28.1111L18.543 25.457M15.8889 15.8889L18.543 18.543M28.1111 15.8889L25.457 18.543M15.9503 14.222C16.4276 14.6993 16.4276 15.4731 15.9503 15.9505C15.473 16.4278 14.6992 16.4278 14.2219 15.9505C13.7445 15.4731 13.7445 14.6993 14.2219 14.222C14.6992 13.7447 15.473 13.7447 15.9503 14.222ZM29.7782 15.9503C29.3009 16.4276 28.527 16.4276 28.0497 15.9503C27.5724 15.473 27.5724 14.6992 28.0497 14.2219C28.527 13.7445 29.3009 13.7445 29.7782 14.2219C30.2555 14.6992 30.2555 15.473 29.7782 15.9503ZM15.9503 29.7782C15.473 30.2555 14.6991 30.2555 14.2218 29.7782C13.7445 29.3009 13.7445 28.527 14.2218 28.0497C14.6991 27.5724 15.473 27.5724 15.9503 28.0497C16.4276 28.527 16.4276 29.3009 15.9503 29.7782ZM31.7778 20.7778C32.4528 20.7778 33 21.325 33 22C33 22.675 32.4528 23.2222 31.7778 23.2222C31.1028 23.2222 30.5556 22.675 30.5556 22C30.5556 21.325 31.1028 20.7778 31.7778 20.7778Z" stroke="white"/>
</g>
<defs>
<filter id="filter0_d_2006_12513" x="0.5" y="0.5" width="43" height="43" filterUnits="userSpaceOnUse" color-interpolation-filters="sRGB">
<feFlood flood-opacity="0" result="BackgroundImageFix"/>
<feColorMatrix in="SourceAlpha" type="matrix" values="0 0 0 0 0 0 0 0 0 0 0 0 0 0 0 0 0 0 127 0" result="hardAlpha"/>
<feOffset/>
<feGaussianBlur stdDeviation="5"/>
<feColorMatrix type="matrix" values="0 0 0 0 1 0 0 0 0 1 0 0 0 0 1 0 0 0 0.7 0"/>
<feBlend mode="normal" in2="BackgroundImageFix" result="effect1_dropShadow_2006_12513"/>
<feBlend mode="normal" in="SourceGraphic" in2="effect1_dropShadow_2006_12513" result="shape"/>
</filter>
</defs>
</svg>
