<svg width="49" height="48" viewBox="0 0 49 48" fill="none" xmlns="http://www.w3.org/2000/svg">
<path d="M16.9851 17.7949C16.9851 17.7949 19.5809 18.0319 21.705 17.3232C23.829 16.6144 24.066 16.0253 26.0727 16.0253C27.7516 16.0253 31.7339 19.4495 32.91 20.5281C33.1492 20.7474 33.3507 20.9999 33.5124 21.2811C34.3209 22.6876 36.8547 26.7209 36.4582 27.1195C35.9864 27.5913 33.9798 26.8826 33.1536 26.0564C32.3275 25.2303 32.2499 24.6477 31.2643 23.4606C30.8524 22.9644 30.055 22.4705 29.1381 22.0896C27.8601 21.5602 26.7084 21.1305 25.6917 21.3365C23.9464 21.6909 25.8357 24.2867 27.0162 25.5846C28.1967 26.8826 28.9055 27.1195 29.612 28.6522C30.0107 29.5138 30.2411 30.5482 30.055 31.4961C29.9553 32.01 29.2865 32.1495 28.9874 31.7198L28.1967 30.8937C27.3772 29.835 25.6807 28.9845 24.4204 28.5326C24.4204 28.5326 19.8179 26.9977 18.8744 26.526C17.9308 26.0542 16.9851 24.6367 16.9851 24.6367" fill="white" fill-opacity="0.01"/>
<path d="M13.2398 26.1604H16.2453C16.6529 26.1604 16.9851 25.8304 16.9851 25.4206V17.4582C16.9851 17.0507 16.6551 16.7184 16.2453 16.7184H13.2398C12.8322 16.7184 12.5 17.0484 12.5 17.4582V25.4206C12.5 25.8282 12.8322 26.1604 13.2398 26.1604Z" fill="white" fill-opacity="0.01"/>
<path d="M27.2931 16.3797C27.2931 16.3797 31.6209 16.8514 32.0927 17.4428C32.5645 18.032 33.5147 21.2834 33.5147 21.2834" fill="white" fill-opacity="0.01"/>
<path d="M32.5645 31.3677C33.9333 31.3677 35.0429 30.258 35.0429 28.8892C35.0429 27.5204 33.9333 26.4108 32.5645 26.4108C31.1957 26.4108 30.086 27.5204 30.086 28.8892C30.086 30.258 31.1957 31.3677 32.5645 31.3677Z" fill="white" fill-opacity="0.01"/>
<path d="M16.9851 17.7949C16.9851 17.7949 19.5809 18.0319 21.705 17.3232C23.829 16.6144 24.066 16.0253 26.0727 16.0253C27.7516 16.0253 31.7339 19.4495 32.91 20.5281C33.1492 20.7474 33.3507 20.9999 33.5124 21.2811C34.3209 22.6876 36.8547 26.7209 36.4582 27.1195C35.9864 27.5913 33.9798 26.8826 33.1536 26.0564C32.3275 25.2303 32.2499 24.6477 31.2643 23.4606C30.8524 22.9644 30.055 22.4705 29.1381 22.0896C27.8601 21.5602 26.7084 21.1305 25.6917 21.3365C23.9464 21.6909 25.8357 24.2867 27.0162 25.5846C28.1967 26.8826 28.9055 27.1195 29.612 28.6522C30.0107 29.5138 30.2411 30.5482 30.055 31.4961C29.9553 32.01 29.2865 32.1495 28.9874 31.7198L28.1967 30.8937C27.3772 29.835 25.6807 28.9845 24.4204 28.5326C24.4204 28.5326 19.8179 26.9977 18.8744 26.526C17.9308 26.0542 16.9851 24.6367 16.9851 24.6367M27.2931 16.3797C27.2931 16.3797 31.6209 16.8514 32.0927 17.4428C32.5645 18.032 33.5147 21.2834 33.5147 21.2834M13.2398 26.1604H16.2453C16.6529 26.1604 16.9851 25.8304 16.9851 25.4206V17.4582C16.9851 17.0507 16.6551 16.7184 16.2453 16.7184H13.2398C12.8322 16.7184 12.5 17.0484 12.5 17.4582V25.4206C12.5 25.8282 12.8322 26.1604 13.2398 26.1604ZM35.0429 28.8892C35.0429 30.258 33.9333 31.3677 32.5645 31.3677C31.1957 31.3677 30.086 30.258 30.086 28.8892C30.086 27.5204 31.1957 26.4108 32.5645 26.4108C33.9333 26.4108 35.0429 27.5204 35.0429 28.8892Z" stroke="white" stroke-miterlimit="10" stroke-linecap="round" stroke-linejoin="round"/>
</svg>
