<svg width="61" height="60" viewBox="0 0 61 60" fill="none" xmlns="http://www.w3.org/2000/svg">
<g filter="url(#filter0_d)">
<path d="M30.7202 36.9478V19.295" stroke="white" stroke-miterlimit="10" stroke-linecap="round" stroke-linejoin="round"/>
<path d="M38.9384 20.8039L22.4368 20.8229" stroke="white" stroke-miterlimit="10" stroke-linecap="round" stroke-linejoin="round"/>
<path d="M25.6567 30.8363L22.4389 20.8397L19.2231 30.8363" fill="white" fill-opacity="0.01"/>
<path d="M25.6567 30.8363L22.4389 20.8397L19.2231 30.8363" stroke="white" stroke-miterlimit="10" stroke-linecap="round" stroke-linejoin="round"/>
<path d="M42.2468 30.8025L39.0311 20.8059L35.8132 30.8025" fill="white" fill-opacity="0.01"/>
<path d="M42.2468 30.8025L39.0311 20.8059L35.8132 30.8025" stroke="white" stroke-miterlimit="10" stroke-linecap="round" stroke-linejoin="round"/>
<path d="M37.625 40.5571H23.815C23.7666 40.5571 23.7288 40.5193 23.7288 40.4709V37.0699C23.7288 37.0215 23.7666 36.9836 23.815 36.9836H37.625C37.6734 36.9836 37.7113 37.0215 37.7113 37.0699V40.4709C37.7113 40.5193 37.6734 40.5571 37.625 40.5571Z" fill="white" fill-opacity="0.01" stroke="white" stroke-miterlimit="10" stroke-linecap="round" stroke-linejoin="round"/>
<path d="M25.6734 30.891C25.6734 32.7514 24.2255 34.2583 22.4388 34.2583C20.652 34.2583 19.2041 32.7514 19.2041 30.891H25.6734Z" fill="white" fill-opacity="0.01" stroke="white" stroke-miterlimit="10" stroke-linecap="round" stroke-linejoin="round"/>
<path d="M42.2657 30.891C42.2657 32.7514 40.8178 34.2583 39.0311 34.2583C37.2443 34.2583 35.7964 32.7514 35.7964 30.891H42.2657Z" fill="white" fill-opacity="0.01" stroke="white" stroke-miterlimit="10" stroke-linecap="round" stroke-linejoin="round"/>
</g>
<defs>
<filter id="filter0_d" x="0.704102" y="0.794952" width="60.0616" height="58.2622" filterUnits="userSpaceOnUse" color-interpolation-filters="sRGB">
<feFlood flood-opacity="0" result="BackgroundImageFix"/>
<feColorMatrix in="SourceAlpha" type="matrix" values="0 0 0 0 0 0 0 0 0 0 0 0 0 0 0 0 0 0 127 0"/>
<feOffset/>
<feGaussianBlur stdDeviation="9"/>
<feColorMatrix type="matrix" values="0 0 0 0 0 0 0 0 0 0.698039 0 0 0 0 1 0 0 0 1 0"/>
<feBlend mode="normal" in2="BackgroundImageFix" result="effect1_dropShadow"/>
<feBlend mode="normal" in="SourceGraphic" in2="effect1_dropShadow" result="shape"/>
</filter>
</defs>
</svg>
