<svg width="26" height="19" viewBox="0 0 26 19" fill="none" xmlns="http://www.w3.org/2000/svg">
<path d="M19.6516 10.4754L11.9603 14.176C11.2827 14.5027 10.4671 14.2166 10.1405 13.539L8.21105 9.52393C7.88441 8.8463 8.17048 8.03071 8.84811 7.70407L16.5394 4.00348L19.6516 10.4754Z" fill="white" fill-opacity="0.01" stroke="white" stroke-miterlimit="10" stroke-linecap="round" stroke-linejoin="round"/>
<path d="M16.8335 4.61412L16.237 3.3745C16.1011 3.09249 16.2208 2.75368 16.5028 2.61775L20.0472 0.913528C20.3292 0.777597 20.668 0.897298 20.8039 1.17931L24.5228 8.90915C24.6587 9.19116 24.539 9.52997 24.257 9.6659L20.7126 11.3701C20.4306 11.5061 20.0918 11.3864 19.9559 11.1043L19.3594 9.86473" fill="white" fill-opacity="0.01"/>
<path d="M16.8335 4.61412L16.237 3.3745C16.1011 3.09249 16.2208 2.75368 16.5028 2.61775L20.0472 0.913528C20.3292 0.777597 20.668 0.897298 20.8039 1.17931L24.5228 8.90915C24.6587 9.19116 24.539 9.52997 24.257 9.6659L20.7126 11.3701C20.4306 11.5061 20.0918 11.3864 19.9559 11.1043L19.3594 9.86473" stroke="white" stroke-miterlimit="10" stroke-linecap="round" stroke-linejoin="round"/>
<path d="M8.24287 9.58955L3.78345 11.7346L5.65062 15.6163L10.11 13.4712L8.24287 9.58955Z" fill="white" fill-opacity="0.01" stroke="white" stroke-miterlimit="10" stroke-linecap="round" stroke-linejoin="round"/>
<path d="M5.68515 16.6309L3.66444 17.6027C3.46155 17.7001 3.21809 17.6148 3.12071 17.412L0.801756 12.5915C0.704372 12.3886 0.789584 12.1451 0.992467 12.0477L3.01115 11.0759C3.21404 10.9785 3.45749 11.0638 3.55488 11.2666L5.87383 16.0871C5.97324 16.29 5.88803 16.5335 5.68515 16.6309Z" fill="white" fill-opacity="0.01" stroke="white" stroke-miterlimit="10" stroke-linecap="round" stroke-linejoin="round"/>
<path d="M21.0435 1.68042C22.6503 1.66622 24.1516 2.49195 24.8495 3.94459C25.5475 5.39723 25.2553 7.08522 24.2429 8.33092" fill="white" fill-opacity="0.01"/>
<path d="M21.0435 1.68042C22.6503 1.66622 24.1516 2.49195 24.8495 3.94459C25.5475 5.39723 25.2553 7.08522 24.2429 8.33092" stroke="white" stroke-miterlimit="10" stroke-linecap="round" stroke-linejoin="round"/>
</svg>
