<svg width="120" height="83" viewBox="0 0 120 83" fill="none" xmlns="http://www.w3.org/2000/svg">
<path d="M91.7264 47.4891L55.3839 64.9748C52.182 66.5182 48.3282 65.1665 46.7848 61.9646L37.668 42.993C36.1246 39.7911 37.4763 35.9374 40.6782 34.3939L77.0207 16.9082L91.7264 47.4891Z" stroke="#9DD0FF" stroke-width="3" stroke-miterlimit="10" stroke-linecap="round" stroke-linejoin="round"/>
<path d="M78.4106 19.7938L75.5921 13.9365C74.9498 12.604 75.5154 11.003 76.848 10.3607L93.5956 2.30808C94.9282 1.66578 96.5291 2.23139 97.1714 3.56391L114.743 40.0884C115.386 41.4209 114.82 43.0218 113.488 43.6641L96.74 51.7168C95.4075 52.3591 93.8065 51.7935 93.1642 50.4609L90.3458 44.6036" stroke="#9DD0FF" stroke-width="3" stroke-miterlimit="10" stroke-linecap="round" stroke-linejoin="round"/>
<path d="M37.819 43.3026L16.7476 53.4385L25.5702 71.7798L46.6417 61.6439L37.819 43.3026Z" stroke="#9DD0FF" stroke-width="3" stroke-miterlimit="10" stroke-linecap="round" stroke-linejoin="round"/>
<path d="M25.7328 76.5738L16.1847 81.1658C15.226 81.6259 14.0756 81.2233 13.6155 80.2646L2.65811 57.4872C2.19796 56.5285 2.60059 55.3781 3.55924 54.918L13.0978 50.3261C14.0565 49.8659 15.2068 50.2686 15.667 51.2272L26.6244 74.0047C27.0941 74.9633 26.6915 76.1137 25.7328 76.5738Z" stroke="#9DD0FF" stroke-width="3" stroke-miterlimit="10" stroke-linecap="round" stroke-linejoin="round"/>
<path d="M98.3027 5.93152C105.895 5.86441 112.989 9.76611 116.287 16.63C119.585 23.4939 118.204 31.4699 113.421 37.356" stroke="#9DD0FF" stroke-width="3" stroke-miterlimit="10" stroke-linecap="round" stroke-linejoin="round"/>
</svg>
