<svg width="114" height="77" viewBox="0 0 114 77" fill="none" xmlns="http://www.w3.org/2000/svg">
<path d="M22.7078 10.2819C22.7078 10.2819 34.5939 11.3671 44.3198 8.12175C54.0458 4.8764 55.131 2.17871 64.3194 2.17871C72.0068 2.17871 90.2417 17.8578 95.627 22.7968C96.7223 23.8008 97.6452 24.957 98.3856 26.245C102.087 32.685 113.689 51.153 111.874 52.9785C109.714 55.1387 100.525 51.8934 96.7426 48.1105C92.9597 44.3276 92.6047 41.6604 88.0917 36.2244C86.2053 33.9527 82.5543 31.6911 78.3556 29.9467C72.5038 27.5228 67.2301 25.5553 62.575 26.4985C54.5833 28.1212 63.2342 40.0073 68.6398 45.9503C74.0453 51.8934 77.2907 52.9785 80.5259 59.9966C82.3514 63.9417 83.4062 68.6779 82.5543 73.0185C82.0979 75.3714 79.0351 76.0103 77.6659 74.0428L74.0453 70.26C70.2929 65.4122 62.5243 61.5178 56.7536 59.4489C56.7536 59.4489 35.6791 52.4207 31.3587 50.2605C27.0383 48.1004 22.7078 41.6097 22.7078 41.6097" stroke="#9DD0FF" stroke-width="3" stroke-miterlimit="10" stroke-linecap="round" stroke-linejoin="round"/>
<path d="M5.55812 48.5866H19.3205C21.1866 48.5866 22.7078 47.0755 22.7078 45.1993V8.73987C22.7078 6.87379 21.1967 5.35254 19.3205 5.35254H5.55812C3.69204 5.35254 2.17078 6.86365 2.17078 8.73987V45.1993C2.17078 47.0654 3.69204 48.5866 5.55812 48.5866Z" stroke="#9DD0FF" stroke-width="3" stroke-miterlimit="10" stroke-linecap="round" stroke-linejoin="round"/>
<path d="M69.9075 3.80078C69.9075 3.80078 89.7244 5.96097 91.8846 8.6688C94.0448 11.3665 98.3956 26.2545 98.3956 26.2545" stroke="#9DD0FF" stroke-width="3" stroke-miterlimit="10" stroke-linecap="round" stroke-linejoin="round"/>
<path d="M94.0449 72.4305C100.313 72.4305 105.393 67.3496 105.393 61.082C105.393 54.8143 100.313 49.7334 94.0449 49.7334C87.7772 49.7334 82.6963 54.8143 82.6963 61.082C82.6963 67.3496 87.7772 72.4305 94.0449 72.4305Z" stroke="#9DD0FF" stroke-width="3" stroke-miterlimit="10" stroke-linecap="round" stroke-linejoin="round"/>
</svg>
