<svg width="24" height="24" viewBox="0 0 24 24" fill="none" xmlns="http://www.w3.org/2000/svg">
<path d="M6.8 12.0009C6.8 12.6374 6.54714 13.2478 6.09706 13.6979C5.64697 14.148 5.03652 14.4009 4.4 14.4009C3.76348 14.4009 3.15303 14.148 2.70294 13.6979C2.25286 13.2478 2 12.6374 2 12.0009C2 11.3644 2.25286 10.7539 2.70294 10.3038C3.15303 9.85374 3.76348 9.60088 4.4 9.60088C5.03652 9.60088 5.64697 9.85374 6.09706 10.3038C6.54714 10.7539 6.8 11.3644 6.8 12.0009Z" fill="#3CA1FF"/>
<path d="M14.0002 12.0009C14.0002 12.6374 13.7473 13.2478 13.2973 13.6979C12.8472 14.148 12.2367 14.4009 11.6002 14.4009C10.9637 14.4009 10.3532 14.148 9.90314 13.6979C9.45305 13.2478 9.2002 12.6374 9.2002 12.0009C9.2002 11.3644 9.45305 10.7539 9.90314 10.3038C10.3532 9.85374 10.9637 9.60088 11.6002 9.60088C12.2367 9.60088 12.8472 9.85374 13.2973 10.3038C13.7473 10.7539 14.0002 11.3644 14.0002 12.0009Z" fill="#3CA1FF"/>
<path d="M21.1999 12.0009C21.1999 12.6374 20.947 13.2478 20.497 13.6979C20.0469 14.148 19.4364 14.4009 18.7999 14.4009C18.1634 14.4009 17.5529 14.148 17.1028 13.6979C16.6528 13.2478 16.3999 12.6374 16.3999 12.0009C16.3999 11.3644 16.6528 10.7539 17.1028 10.3038C17.5529 9.85374 18.1634 9.60088 18.7999 9.60088C19.4364 9.60088 20.0469 9.85374 20.497 10.3038C20.947 10.7539 21.1999 11.3644 21.1999 12.0009Z" fill="#3CA1FF"/>
</svg>
