<svg width="56" height="56" viewBox="0 0 56 56" fill="none" xmlns="http://www.w3.org/2000/svg">
<g filter="url(#filter0_d_106:2)">
<path d="M28 30.5C29.3807 30.5 30.5 29.3807 30.5 28C30.5 26.6193 29.3807 25.5 28 25.5C26.6193 25.5 25.5 26.6193 25.5 28C25.5 29.3807 26.6193 30.5 28 30.5Z" stroke="#52CBFF" stroke-linecap="round" stroke-linejoin="round"/>
</g>
<g filter="url(#filter1_d_106:2)">
<path d="M34.1666 30.4999C34.0557 30.7513 34.0226 31.0301 34.0716 31.3004C34.1207 31.5707 34.2495 31.8202 34.4416 32.0166L34.4916 32.0666C34.6466 32.2214 34.7695 32.4052 34.8534 32.6075C34.9373 32.8098 34.9805 33.0267 34.9805 33.2458C34.9805 33.4648 34.9373 33.6817 34.8534 33.884C34.7695 34.0863 34.6466 34.2701 34.4916 34.4249C34.3369 34.5799 34.153 34.7028 33.9507 34.7867C33.7484 34.8706 33.5315 34.9137 33.3125 34.9137C33.0935 34.9137 32.8766 34.8706 32.6742 34.7867C32.4719 34.7028 32.2881 34.5799 32.1333 34.4249L32.0833 34.3749C31.8869 34.1828 31.6375 34.0539 31.3671 34.0049C31.0968 33.9559 30.818 33.989 30.5666 34.0999C30.3202 34.2056 30.11 34.381 29.9619 34.6045C29.8138 34.8281 29.7344 35.0901 29.7333 35.3583V35.4999C29.7333 35.9419 29.5577 36.3659 29.2452 36.6784C28.9326 36.991 28.5087 37.1666 28.0666 37.1666C27.6246 37.1666 27.2007 36.991 26.8881 36.6784C26.5756 36.3659 26.4 35.9419 26.4 35.4999V35.4249C26.3935 35.1491 26.3042 34.8816 26.1437 34.6572C25.9832 34.4328 25.7589 34.2618 25.5 34.1666C25.2486 34.0557 24.9698 34.0226 24.6995 34.0716C24.4292 34.1206 24.1797 34.2495 23.9833 34.4416L23.9333 34.4916C23.7785 34.6465 23.5947 34.7695 23.3924 34.8533C23.19 34.9372 22.9732 34.9804 22.7541 34.9804C22.5351 34.9804 22.3182 34.9372 22.1159 34.8533C21.9136 34.7695 21.7298 34.6465 21.575 34.4916C21.42 34.3368 21.2971 34.153 21.2132 33.9507C21.1293 33.7483 21.0862 33.5314 21.0862 33.3124C21.0862 33.0934 21.1293 32.8765 21.2132 32.6742C21.2971 32.4719 21.42 32.288 21.575 32.1332L21.625 32.0833C21.8171 31.8869 21.946 31.6374 21.995 31.3671C22.044 31.0967 22.0109 30.8179 21.9 30.5666C21.7943 30.3201 21.6189 30.1099 21.3954 29.9618C21.1718 29.8138 20.9098 29.7343 20.6416 29.7333H20.5C20.058 29.7333 19.634 29.5577 19.3215 29.2451C19.0089 28.9325 18.8333 28.5086 18.8333 28.0666C18.8333 27.6246 19.0089 27.2006 19.3215 26.8881C19.634 26.5755 20.058 26.3999 20.5 26.3999H20.575C20.8508 26.3935 21.1183 26.3042 21.3427 26.1437C21.5671 25.9832 21.7381 25.7589 21.8333 25.4999C21.9442 25.2486 21.9773 24.9698 21.9283 24.6994C21.8793 24.4291 21.7504 24.1797 21.5583 23.9833L21.5083 23.9333C21.3534 23.7785 21.2304 23.5946 21.1465 23.3923C21.0627 23.19 21.0195 22.9731 21.0195 22.7541C21.0195 22.5351 21.0627 22.3182 21.1465 22.1159C21.2304 21.9135 21.3534 21.7297 21.5083 21.5749C21.6631 21.42 21.8469 21.297 22.0492 21.2132C22.2516 21.1293 22.4685 21.0861 22.6875 21.0861C22.9065 21.0861 23.1234 21.1293 23.3257 21.2132C23.528 21.297 23.7119 21.42 23.8666 21.5749L23.9166 21.6249C24.113 21.817 24.3625 21.9459 24.6328 21.9949C24.9032 22.0439 25.182 22.0108 25.4333 21.8999H25.5C25.7465 21.7943 25.9567 21.6189 26.1047 21.3953C26.2528 21.1717 26.3322 20.9097 26.3333 20.6416V20.4999C26.3333 20.0579 26.5089 19.634 26.8215 19.3214C27.134 19.0088 27.558 18.8333 28 18.8333C28.442 18.8333 28.8659 19.0088 29.1785 19.3214C29.4911 19.634 29.6666 20.0579 29.6666 20.4999V20.5749C29.6677 20.8431 29.7472 21.1051 29.8952 21.3286C30.0433 21.5522 30.2535 21.7276 30.5 21.8333C30.7513 21.9442 31.0301 21.9773 31.3005 21.9283C31.5708 21.8792 31.8202 21.7504 32.0166 21.5583L32.0666 21.5083C32.2214 21.3533 32.4052 21.2304 32.6076 21.1465C32.8099 21.0626 33.0268 21.0194 33.2458 21.0194C33.4648 21.0194 33.6817 21.0626 33.884 21.1465C34.0864 21.2304 34.2702 21.3533 34.425 21.5083C34.5799 21.663 34.7029 21.8469 34.7867 22.0492C34.8706 22.2515 34.9138 22.4684 34.9138 22.6874C34.9138 22.9064 34.8706 23.1233 34.7867 23.3257C34.7029 23.528 34.5799 23.7118 34.425 23.8666L34.375 23.9166C34.1829 24.113 34.054 24.3624 34.005 24.6328C33.956 24.9031 33.989 25.1819 34.1 25.4333V25.4999C34.2056 25.7464 34.381 25.9566 34.6046 26.1047C34.8282 26.2527 35.0902 26.3322 35.3583 26.3333H35.5C35.942 26.3333 36.3659 26.5088 36.6785 26.8214C36.991 27.134 37.1666 27.5579 37.1666 27.9999C37.1666 28.4419 36.991 28.8659 36.6785 29.1784C36.3659 29.491 35.942 29.6666 35.5 29.6666H35.425C35.1568 29.6677 34.8948 29.7471 34.6713 29.8952C34.4477 30.0432 34.2723 30.2534 34.1666 30.4999V30.4999Z" stroke="#52CBFF" stroke-linecap="round" stroke-linejoin="round"/>
</g>
<defs>
<filter id="filter0_d_106:2" x="7" y="7" width="42" height="42" filterUnits="userSpaceOnUse" color-interpolation-filters="sRGB">
<feFlood flood-opacity="0" result="BackgroundImageFix"/>
<feColorMatrix in="SourceAlpha" type="matrix" values="0 0 0 0 0 0 0 0 0 0 0 0 0 0 0 0 0 0 127 0" result="hardAlpha"/>
<feOffset/>
<feGaussianBlur stdDeviation="9"/>
<feColorMatrix type="matrix" values="0 0 0 0 0 0 0 0 0 0.698039 0 0 0 0 1 0 0 0 1 0"/>
<feBlend mode="normal" in2="BackgroundImageFix" result="effect1_dropShadow_106:2"/>
<feBlend mode="normal" in="SourceGraphic" in2="effect1_dropShadow_106:2" result="shape"/>
</filter>
<filter id="filter1_d_106:2" x="0.333313" y="0.333252" width="55.3333" height="55.3333" filterUnits="userSpaceOnUse" color-interpolation-filters="sRGB">
<feFlood flood-opacity="0" result="BackgroundImageFix"/>
<feColorMatrix in="SourceAlpha" type="matrix" values="0 0 0 0 0 0 0 0 0 0 0 0 0 0 0 0 0 0 127 0" result="hardAlpha"/>
<feOffset/>
<feGaussianBlur stdDeviation="9"/>
<feColorMatrix type="matrix" values="0 0 0 0 0 0 0 0 0 0.698039 0 0 0 0 1 0 0 0 1 0"/>
<feBlend mode="normal" in2="BackgroundImageFix" result="effect1_dropShadow_106:2"/>
<feBlend mode="normal" in="SourceGraphic" in2="effect1_dropShadow_106:2" result="shape"/>
</filter>
</defs>
</svg>
