<svg width="115" height="106" viewBox="0 0 115 106" fill="none" xmlns="http://www.w3.org/2000/svg">
<path d="M57.4598 87.1018V2.0332" stroke="#9DD0FF" stroke-width="3" stroke-miterlimit="10" stroke-linecap="round" stroke-linejoin="round"/>
<path d="M97.0634 9.30469L17.542 9.39593" stroke="#9DD0FF" stroke-width="3" stroke-miterlimit="10" stroke-linecap="round" stroke-linejoin="round"/>
<path d="M33.0587 57.6497L17.552 9.47656L2.05542 57.6497" stroke="#9DD0FF" stroke-width="3" stroke-miterlimit="10" stroke-linecap="round" stroke-linejoin="round"/>
<path d="M113.006 57.4885L97.5096 9.31543L82.0029 57.4885" stroke="#9DD0FF" stroke-width="3" stroke-miterlimit="10" stroke-linecap="round" stroke-linejoin="round"/>
<path d="M90.735 104.495H24.1849C23.9516 104.495 23.769 104.312 23.769 104.079V87.6902C23.769 87.457 23.9516 87.2744 24.1849 87.2744H90.735C90.9682 87.2744 91.1508 87.457 91.1508 87.6902V104.079C91.1508 104.312 90.9682 104.495 90.735 104.495Z" stroke="#9DD0FF" stroke-width="3" stroke-miterlimit="10" stroke-linecap="round" stroke-linejoin="round"/>
<path d="M33.14 57.9141C33.14 66.8793 26.1624 74.1408 17.5521 74.1408C8.94176 74.1408 1.96423 66.8793 1.96423 57.9141H33.14Z" stroke="#9DD0FF" stroke-width="3" stroke-miterlimit="10" stroke-linecap="round" stroke-linejoin="round"/>
<path d="M113.097 57.9141C113.097 66.8793 106.12 74.1408 97.5096 74.1408C88.8993 74.1408 81.9218 66.8793 81.9218 57.9141H113.097Z" stroke="#9DD0FF" stroke-width="3" stroke-miterlimit="10" stroke-linecap="round" stroke-linejoin="round"/>
</svg>
