<svg width="19" height="18" viewBox="0 0 19 18" fill="none" xmlns="http://www.w3.org/2000/svg">
<path d="M11.0955 17.7655H8.0834C7.68397 17.7655 7.30091 17.6167 7.01847 17.352C6.73603 17.0872 6.57736 16.7281 6.57736 16.3537V10.996L0.997503 5.76546C0.714679 5.50192 0.554904 5.14398 0.553223 4.77016V2.23604C0.553223 1.86162 0.711894 1.50253 0.99433 1.23778C1.27677 0.973019 1.65983 0.82428 2.05926 0.82428H17.1196C17.519 0.82428 17.9021 0.973019 18.1845 1.23778C18.467 1.50253 18.6256 1.86162 18.6256 2.23604V4.77016C18.624 5.14398 18.4642 5.50192 18.1814 5.76546L12.6015 10.996V16.3537C12.6015 16.7281 12.4428 17.0872 12.1604 17.352C11.878 17.6167 11.4949 17.7655 11.0955 17.7655ZM2.05926 2.23604V4.77016L8.0834 10.4172V16.3537H11.0955V10.4172L17.1196 4.77016V2.23604H2.05926Z" fill="white"/>
</svg>
