<svg width="18" height="18" viewBox="0 0 16 16" fill="none" xmlns="http://www.w3.org/2000/svg">
<ellipse cx="7.99994" cy="8" rx="7.99994" ry="8" fill="white" fill-opacity="0.25"/>
<path d="M7.25169 10.4532H8.27209V10.4015C8.28909 9.33461 8.5612 8.86998 9.30949 8.39675C10.0578 7.93642 10.5 7.2739 10.5 6.32314C10.5 4.98088 9.53058 4 8.03399 4C6.65645 4 5.56378 4.86042 5.5 6.32314H6.57142C6.6352 5.30784 7.33672 4.89484 8.03399 4.89484C8.83331 4.89484 9.47956 5.4283 9.47956 6.27151C9.47956 6.95555 9.09266 7.44598 8.59521 7.75143C7.76189 8.26338 7.26444 8.76243 7.25169 10.4015V10.4532ZM7.7959 13C8.21682 13 8.5612 12.6515 8.5612 12.2256C8.5612 11.7997 8.21682 11.4512 7.7959 11.4512C7.37499 11.4512 7.0306 11.7997 7.0306 12.2256C7.0306 12.6515 7.37499 13 7.7959 13Z" fill="white"/>
</svg>
