<?xml version="1.0" standalone="no"?>
<!DOCTYPE svg PUBLIC "-//W3C//DTD SVG 20010904//EN"
 "http://www.w3.org/TR/2001/REC-SVG-20010904/DTD/svg10.dtd">
<svg version="1.0" xmlns="http://www.w3.org/2000/svg"
 width="956.000000pt" height="956.000000pt" viewBox="0 0 956.000000 956.000000"
 preserveAspectRatio="xMidYMid meet">
<metadata>
Created by potrace 1.11, written by Peter Selinger 2001-2013
</metadata>
<g transform="translate(0.000000,956.000000) scale(0.100000,-0.100000)"
fill="#000000" stroke="none">
<path d="M4767 9204 c-3 -11 -20 -41 -37 -69 -17 -27 -35 -61 -41 -75 -6 -13
-13 -27 -17 -30 -4 -3 -15 -21 -25 -40 -31 -59 -52 -95 -57 -100 -3 -3 -16
-25 -29 -50 -13 -25 -30 -52 -37 -61 -8 -8 -14 -18 -14 -22 0 -4 -22 -44 -49
-89 -59 -101 -83 -143 -129 -228 -20 -36 -40 -69 -44 -75 -5 -5 -19 -28 -31
-50 -24 -45 -136 -240 -180 -313 -15 -26 -31 -54 -34 -62 -4 -8 -9 -17 -12
-20 -4 -3 -12 -16 -19 -30 -6 -14 -28 -52 -47 -85 -20 -33 -39 -68 -42 -77 -3
-10 -9 -18 -14 -18 -5 0 -9 -4 -9 -9 0 -9 -80 -152 -90 -161 -3 -3 -14 -21
-23 -40 -10 -19 -28 -53 -42 -75 -14 -22 -28 -47 -32 -55 -3 -8 -16 -31 -28
-50 -12 -19 -33 -55 -47 -80 -14 -25 -52 -90 -83 -145 -32 -55 -68 -118 -79
-140 -12 -22 -24 -42 -27 -45 -3 -3 -27 -43 -53 -90 -52 -94 -68 -122 -76
-130 -3 -3 -18 -30 -35 -61 -29 -58 -43 -64 -60 -30 -44 87 -61 117 -66 121
-3 3 -12 19 -21 35 -17 34 -83 153 -98 175 -5 8 -28 49 -51 90 -66 117 -72
128 -139 245 -34 61 -74 130 -88 155 -13 25 -40 70 -58 101 -19 31 -34 62 -34
68 0 6 -3 11 -7 11 -5 0 -17 19 -28 43 -11 23 -22 44 -26 47 -3 3 -21 34 -41
70 -19 36 -49 89 -66 118 -18 29 -32 55 -32 57 0 2 -22 42 -50 89 -28 47 -50
89 -50 95 0 6 -4 11 -9 11 -5 0 -11 8 -14 18 -4 9 -18 37 -33 62 -23 40 -90
159 -147 260 -10 19 -34 60 -52 90 -18 30 -44 75 -57 100 -35 64 -153 273
-200 353 -39 67 -40 68 -52 45 -7 -12 -50 -88 -96 -168 -45 -80 -94 -165 -108
-190 -185 -328 -278 -492 -298 -522 -13 -21 -21 -38 -18 -38 4 0 0 -8 -8 -17
-8 -10 -29 -43 -45 -73 -17 -30 -65 -116 -108 -190 -42 -74 -90 -157 -105
-185 -15 -27 -61 -108 -102 -180 -41 -71 -89 -155 -105 -185 -17 -30 -48 -84
-68 -120 -21 -36 -49 -85 -63 -110 -14 -25 -33 -58 -43 -75 -10 -16 -29 -50
-42 -75 -14 -25 -33 -59 -43 -77 -52 -89 -290 -508 -293 -517 -2 -6 -7 -13
-11 -16 -4 -3 -13 -18 -22 -35 -18 -36 -51 -95 -128 -230 -32 -55 -67 -117
-78 -137 l-21 -37 23 -43 c13 -24 53 -93 89 -155 37 -61 67 -116 67 -122 0 -5
3 -11 8 -13 4 -1 14 -16 23 -33 9 -16 57 -101 108 -188 50 -86 91 -162 91
-167 0 -6 5 -10 10 -10 6 0 10 -5 10 -10 0 -6 11 -27 23 -48 13 -20 37 -59 52
-87 42 -74 85 -148 95 -165 5 -8 24 -42 44 -75 19 -33 72 -125 119 -205 46
-80 99 -172 117 -205 18 -33 36 -62 39 -65 3 -3 13 -18 21 -35 8 -16 59 -105
112 -198 54 -93 98 -173 98 -178 0 -5 5 -9 10 -9 6 0 10 -4 10 -9 0 -5 26 -54
58 -108 32 -54 61 -105 65 -113 4 -8 17 -31 28 -50 36 -59 251 -433 268 -465
9 -16 18 -32 21 -35 3 -3 11 -16 18 -30 11 -24 19 -37 53 -90 9 -14 27 -45 41
-70 72 -130 93 -165 100 -168 4 -2 8 -7 8 -12 0 -4 50 -95 111 -201 61 -107
123 -214 137 -239 13 -25 28 -49 32 -55 5 -5 23 -37 40 -70 18 -33 37 -65 42
-72 5 -7 19 -29 30 -50 38 -70 54 -98 81 -140 15 -24 27 -45 27 -48 0 -3 11
-22 23 -43 13 -20 35 -57 49 -82 14 -25 48 -84 77 -132 28 -48 51 -91 51 -97
0 -6 5 -11 10 -11 6 0 10 -4 10 -10 0 -5 27 -55 60 -111 33 -55 60 -103 60
-105 0 -2 12 -23 27 -47 14 -23 40 -67 56 -97 16 -30 36 -62 43 -71 8 -8 14
-19 14 -22 0 -4 11 -24 23 -45 13 -20 35 -57 49 -82 14 -25 76 -133 138 -240
62 -107 124 -216 138 -242 l26 -47 38 60 c21 33 38 62 38 64 0 3 18 34 40 70
22 36 40 68 40 71 0 3 8 18 19 32 10 15 29 47 43 72 14 25 36 63 48 85 13 22
35 60 49 85 13 25 30 48 35 52 6 4 8 8 4 8 -4 0 7 24 25 52 19 29 37 60 40 68
4 8 15 29 25 45 10 17 30 51 44 76 46 82 53 94 58 99 3 3 10 14 16 25 6 11 55
97 109 190 54 94 156 271 228 395 71 124 161 280 201 348 85 146 85 146 194
337 47 83 92 158 100 168 8 9 11 17 6 17 -5 0 -4 4 2 8 6 4 17 21 26 37 8 17
39 71 68 120 29 50 58 99 64 111 11 20 36 22 36 3 0 -6 35 -72 79 -147 43 -75
89 -157 103 -182 14 -25 68 -120 121 -212 52 -93 92 -168 89 -168 -4 0 -2 -4
4 -8 7 -4 29 -38 49 -77 21 -38 49 -87 62 -107 12 -21 23 -40 23 -44 0 -3 8
-18 18 -32 11 -15 35 -56 54 -92 20 -36 45 -81 57 -100 11 -19 24 -42 28 -50
4 -8 20 -37 36 -65 32 -54 80 -140 108 -193 10 -18 22 -38 27 -45 5 -7 26 -43
47 -82 21 -38 49 -87 62 -107 12 -21 23 -40 23 -42 0 -3 13 -27 29 -54 37 -63
78 -136 109 -192 13 -24 33 -57 44 -72 10 -15 17 -28 14 -28 -4 0 5 -18 19
-41 15 -22 35 -57 47 -77 28 -50 69 -122 82 -147 6 -11 17 -28 25 -37 8 -10
10 -18 5 -18 -5 0 -4 -4 2 -8 5 -4 28 -38 49 -77 22 -38 50 -88 63 -110 12
-22 29 -54 37 -72 15 -33 35 -52 35 -33 0 6 16 36 35 66 19 30 35 56 35 59 0
2 25 45 55 96 30 50 55 95 55 100 0 4 6 14 13 21 7 7 27 38 43 68 82 148 98
175 106 178 4 2 8 12 8 23 0 10 3 19 8 19 4 0 21 26 37 58 17 31 32 59 35 62
11 11 31 46 41 73 6 15 15 27 20 27 5 0 9 5 9 10 0 6 41 80 90 166 50 86 90
160 90 165 0 5 5 9 10 9 6 0 10 4 10 9 0 8 60 116 100 181 16 27 164 282 191
329 14 25 94 165 179 311 84 146 209 362 277 480 68 118 128 222 133 230 5 8
21 35 35 60 14 25 36 63 50 85 14 22 28 47 32 55 4 8 53 95 110 192 57 98 103
182 103 188 0 5 4 10 8 10 5 0 19 23 32 50 13 27 27 50 32 50 4 0 8 9 8 19 0
11 4 21 8 23 7 3 24 29 80 128 63 111 123 217 132 230 5 8 26 44 46 80 35 61
252 436 379 655 32 55 84 145 115 200 113 199 312 540 322 553 6 6 7 12 2 12
-5 0 -4 4 2 8 6 4 26 34 44 67 18 33 42 72 52 88 11 15 16 27 11 27 -4 0 -3 4
3 8 6 4 18 21 27 38 13 26 14 35 3 55 -7 13 -72 127 -145 253 -72 125 -131
232 -131 237 0 5 -4 9 -10 9 -5 0 -10 4 -10 9 0 6 -31 64 -70 130 -38 66 -70
124 -70 129 0 6 -3 12 -7 14 -5 2 -85 138 -179 303 -95 165 -184 320 -198 345
-15 25 -29 53 -33 63 -3 9 -9 17 -14 17 -5 0 -9 4 -9 9 0 6 -29 60 -65 121
-36 61 -65 115 -65 121 0 5 -4 9 -10 9 -5 0 -10 9 -10 20 0 11 -3 20 -8 20 -4
0 -16 17 -27 38 -11 20 -46 81 -77 135 -32 54 -58 100 -58 102 0 2 -14 28 -31
57 -41 68 -46 77 -178 307 -61 106 -111 197 -111 202 0 5 -3 9 -8 9 -4 0 -13
12 -20 28 -28 63 -238 416 -246 415 -5 -1 -21 -23 -35 -50 -14 -26 -28 -50
-31 -53 -3 -3 -12 -17 -20 -33 -13 -24 -210 -366 -235 -409 -50 -84 -115 -202
-115 -209 0 -5 -4 -9 -10 -9 -5 0 -10 -7 -10 -15 0 -8 -5 -15 -10 -15 -6 0 -9
-3 -8 -7 1 -5 -5 -19 -14 -33 -14 -23 -164 -282 -305 -529 -29 -51 -53 -97
-53 -101 0 -5 -4 -10 -8 -12 -8 -3 -31 -42 -88 -148 -11 -19 -21 -37 -24 -40
-3 -3 -14 -22 -25 -42 -11 -21 -24 -38 -29 -38 -5 0 -7 -3 -3 -6 3 -3 -16 -42
-44 -86 -27 -44 -49 -81 -49 -83 0 -2 -23 -43 -51 -92 -29 -48 -63 -108 -77
-133 -14 -25 -29 -48 -34 -51 -6 -3 -9 -8 -7 -10 2 -4 -25 -57 -64 -121 -23
-40 -62 -108 -82 -145 -11 -21 -13 -19 -45 35 -19 31 -40 65 -48 75 -8 9 -11
17 -6 17 5 0 5 4 -1 8 -5 4 -15 16 -21 27 -13 23 -142 246 -186 323 -16 26
-36 62 -45 80 -9 17 -20 32 -25 32 -4 0 -8 8 -8 19 0 10 -7 24 -15 31 -8 7
-15 16 -15 21 0 5 -11 26 -23 47 -13 20 -67 111 -119 202 -52 91 -126 219
-165 285 -38 66 -72 127 -77 135 -4 8 -17 32 -29 52 -90 150 -187 321 -187
329 0 5 -4 9 -10 9 -5 0 -10 4 -10 10 0 5 -14 33 -31 62 -31 52 -50 85 -88
151 -16 28 -58 101 -193 332 -16 28 -34 62 -41 78 -6 15 -15 27 -19 27 -4 0
-8 5 -8 11 0 6 -12 29 -27 52 -16 23 -39 63 -52 89 -14 25 -32 56 -41 68 -16
21 -17 22 -23 4z m64 -871 c24 -42 59 -102 77 -133 18 -30 37 -64 43 -75 5
-11 20 -36 32 -56 43 -72 87 -153 87 -161 0 -4 5 -8 10 -8 6 0 10 -7 10 -15 0
-8 5 -15 11 -15 5 0 7 -4 4 -10 -3 -5 -1 -10 4 -10 6 0 11 -4 11 -9 0 -5 20
-44 45 -85 25 -42 45 -81 45 -86 0 -6 5 -10 10 -10 6 0 10 -6 10 -14 0 -8 6
-21 13 -28 6 -8 20 -29 31 -48 10 -19 27 -50 37 -67 11 -18 29 -50 40 -70 12
-21 30 -51 40 -68 11 -16 26 -43 35 -60 8 -16 25 -47 37 -67 12 -20 49 -83 81
-140 32 -57 66 -111 74 -120 8 -10 11 -18 7 -18 -4 0 -1 -8 7 -17 8 -10 39
-61 68 -113 29 -52 60 -103 68 -112 8 -10 11 -18 7 -18 -4 0 -1 -8 7 -17 8
-10 26 -38 40 -63 14 -25 64 -112 112 -194 48 -82 100 -173 117 -203 l30 -54
-19 -32 c-11 -18 -29 -48 -39 -67 -70 -126 -88 -155 -95 -158 -4 -2 -8 -8 -8
-14 0 -6 -20 -44 -45 -85 -25 -40 -45 -76 -45 -79 0 -3 -16 -30 -35 -60 -19
-30 -35 -59 -35 -64 0 -6 -4 -10 -10 -10 -5 0 -10 -9 -10 -20 0 -11 -4 -20 -8
-20 -4 0 -18 -19 -30 -42 -12 -24 -35 -65 -52 -93 -16 -27 -37 -66 -47 -85
-10 -19 -25 -43 -33 -53 -8 -10 -15 -21 -15 -25 0 -4 -8 -18 -16 -32 -9 -14
-34 -56 -56 -95 -22 -38 -66 -115 -98 -170 -32 -55 -68 -119 -81 -142 -13 -23
-81 -140 -151 -260 -70 -120 -135 -233 -144 -251 -10 -18 -22 -38 -27 -45 -5
-7 -22 -37 -38 -67 -16 -30 -31 -57 -34 -60 -3 -3 -11 -15 -17 -27 -7 -13 -19
-33 -25 -45 -7 -13 -15 -25 -18 -28 -6 -6 -49 -84 -64 -117 -18 -39 -12 -48
-170 232 -13 22 -33 57 -45 78 -42 73 -59 103 -111 197 -29 52 -60 103 -68
113 -8 9 -12 17 -8 17 4 0 -1 12 -12 28 -23 34 -150 256 -228 399 -20 37 -45
80 -56 95 -10 14 -18 28 -18 30 0 2 -41 76 -91 163 -88 153 -110 193 -163 288
-28 50 -83 146 -96 167 -5 8 -21 37 -36 65 -15 27 -44 78 -65 113 -22 35 -39
66 -39 69 0 2 -23 43 -51 91 l-51 86 24 46 c14 25 69 122 123 215 54 94 106
184 115 200 9 17 38 65 64 108 25 43 46 81 46 83 0 2 12 23 27 47 15 23 28 44
28 47 0 3 8 16 16 30 9 14 46 77 82 140 36 63 74 129 84 147 10 17 74 129 143
248 69 119 134 233 146 253 11 20 74 129 139 242 65 113 150 260 189 328 38
67 73 122 76 122 3 0 26 -35 51 -77z m-2981 -114 c0 -4 17 -36 38 -70 21 -35
44 -77 52 -94 8 -16 18 -32 21 -35 3 -3 21 -34 40 -70 19 -36 37 -66 42 -68 4
-2 7 -8 7 -13 0 -5 32 -64 70 -130 39 -66 70 -122 70 -124 0 -3 18 -34 40 -70
22 -36 40 -70 40 -75 0 -6 3 -10 8 -10 4 0 13 -12 19 -28 7 -15 54 -99 104
-187 50 -88 104 -182 119 -210 15 -27 69 -122 119 -209 50 -88 91 -161 91
-162 0 -3 136 -242 151 -264 5 -8 16 -28 24 -45 9 -16 20 -37 25 -45 45 -70
90 -153 90 -164 0 -8 4 -16 8 -18 9 -3 93 -147 121 -205 8 -18 19 -33 23 -33
4 0 8 -5 8 -11 0 -5 25 -53 55 -105 30 -53 55 -100 55 -105 0 -5 5 -9 10 -9 6
0 10 -4 10 -10 0 -8 131 -245 160 -290 6 -8 14 -24 20 -35 5 -11 23 -42 39
-70 17 -27 39 -69 50 -92 12 -23 26 -48 33 -55 7 -8 22 -32 34 -53 36 -70 97
-179 121 -217 13 -21 23 -40 23 -42 0 -2 19 -37 43 -78 42 -71 59 -100 135
-238 20 -36 41 -68 46 -72 6 -4 7 -8 3 -8 -5 0 1 -12 12 -26 12 -15 21 -33 21
-40 0 -8 5 -14 10 -14 6 0 10 -6 10 -14 0 -7 9 -25 21 -40 11 -14 17 -26 13
-26 -4 0 0 -8 8 -17 15 -18 72 -113 73 -123 1 -3 11 -21 23 -40 12 -19 22 -41
22 -47 0 -7 5 -13 10 -13 6 0 10 -4 10 -10 0 -8 121 -224 151 -270 5 -8 16
-28 24 -45 9 -16 24 -43 34 -60 10 -16 30 -52 45 -78 l27 -49 -41 -70 c-22
-38 -40 -72 -40 -74 0 -3 -5 -10 -10 -17 -12 -13 -197 -331 -211 -362 -5 -11
-18 -33 -28 -50 -17 -27 -40 -66 -75 -130 -6 -11 -22 -36 -36 -55 -14 -19 -24
-37 -23 -40 1 -3 -22 -45 -51 -95 -116 -198 -140 -240 -137 -244 1 -2 -2 -7
-8 -10 -6 -4 -21 -27 -34 -51 -27 -51 -186 -328 -288 -502 -38 -64 -69 -121
-69 -127 0 -6 -4 -11 -9 -11 -5 0 -12 -9 -16 -19 -5 -18 -174 -313 -192 -336
-4 -6 -21 -36 -38 -68 -16 -31 -33 -57 -37 -57 -4 0 -24 30 -45 67 -21 38 -42
75 -48 84 -5 9 -32 54 -58 100 -26 46 -52 91 -57 99 -6 8 -42 71 -81 140 -40
69 -81 141 -92 160 -11 19 -27 48 -36 63 -9 16 -21 36 -26 45 -59 98 -97 165
-127 222 -7 14 -15 27 -18 30 -8 8 -27 41 -52 90 -13 25 -25 47 -29 50 -5 5
-77 129 -119 206 -12 21 -30 53 -41 69 -10 17 -22 37 -26 45 -3 8 -14 26 -23
40 -9 14 -31 50 -47 80 -17 30 -53 95 -82 143 -28 49 -51 91 -51 95 0 3 -6 13
-14 21 -8 9 -27 40 -42 69 -16 29 -38 68 -49 87 -89 152 -332 574 -341 590 -6
11 -22 39 -37 62 -15 24 -27 45 -27 49 0 3 -8 18 -19 32 -10 15 -29 47 -43 72
-65 116 -83 148 -105 182 -12 21 -23 42 -23 48 0 5 -4 10 -10 10 -5 0 -10 4
-10 9 0 9 -48 97 -86 158 -8 13 -15 26 -15 30 0 5 -6 15 -13 23 -8 8 -25 35
-38 60 -14 25 -42 74 -63 110 -21 36 -46 81 -57 100 -17 29 -52 90 -98 170 -5
8 -27 46 -49 84 -23 38 -41 73 -41 77 0 5 -4 9 -10 9 -5 0 -10 4 -10 9 0 6
-41 81 -91 168 -51 87 -100 172 -110 189 -9 17 -23 42 -31 55 -7 13 -15 26
-18 29 -3 3 -13 21 -24 40 -10 19 -27 50 -37 68 -11 17 -29 49 -40 70 -12 20
-43 74 -70 119 l-48 83 93 163 c51 90 96 170 99 178 4 8 11 21 17 29 16 24
140 242 140 246 0 2 18 33 40 69 22 36 40 67 40 69 0 2 23 43 52 92 28 49 65
114 81 144 16 30 40 72 53 92 13 21 24 42 24 48 0 5 5 10 12 10 6 0 8 3 5 6
-4 4 2 19 12 33 10 14 21 33 24 41 4 8 15 29 25 45 48 77 232 408 232 415 0 5
4 10 9 12 5 2 23 30 40 63 17 33 36 67 41 75 32 49 310 545 310 554 0 11 39
-34 40 -45z m5996 -99 c36 -63 76 -133 90 -155 13 -22 31 -53 39 -70 8 -16 26
-48 40 -70 13 -22 28 -47 32 -55 4 -8 54 -95 111 -194 57 -99 114 -198 126
-221 28 -48 32 -55 181 -315 65 -113 131 -227 147 -255 16 -27 32 -58 35 -67
3 -10 9 -18 14 -18 5 0 9 -4 9 -9 0 -5 23 -48 50 -96 28 -48 50 -91 50 -96 0
-5 5 -9 10 -9 6 0 10 -4 10 -9 0 -13 82 -155 92 -159 4 -2 8 -11 8 -20 0 -8 6
-23 14 -31 12 -14 28 -42 90 -156 6 -11 16 -23 21 -27 6 -4 6 -8 1 -8 -5 0 -2
-8 6 -17 8 -10 29 -43 45 -73 l31 -55 -90 -155 c-50 -85 -101 -173 -113 -195
-13 -22 -46 -80 -75 -130 -29 -49 -62 -106 -72 -125 -58 -102 -73 -126 -83
-132 -5 -4 -6 -8 -1 -8 5 0 4 -6 -2 -13 -9 -10 -196 -331 -287 -492 -13 -22
-46 -80 -75 -130 -29 -49 -64 -110 -78 -135 -14 -25 -36 -62 -49 -82 -12 -21
-23 -40 -23 -43 0 -2 -16 -29 -35 -59 -19 -30 -35 -57 -35 -60 0 -2 -24 -44
-52 -93 -61 -102 -82 -138 -100 -173 -7 -14 -15 -27 -18 -30 -9 -9 -51 -84
-63 -112 -6 -16 -15 -28 -19 -28 -4 0 -8 -4 -8 -9 0 -5 -21 -45 -46 -88 -26
-43 -56 -94 -66 -113 -85 -149 -153 -266 -157 -270 -3 -3 -14 -21 -24 -40 -9
-19 -25 -48 -35 -65 -10 -16 -30 -51 -45 -77 -14 -25 -37 -64 -51 -87 -14 -22
-26 -43 -26 -45 0 -3 -20 -39 -45 -79 -25 -41 -45 -79 -45 -85 0 -6 -4 -12 -8
-14 -4 -1 -26 -34 -47 -73 -22 -38 -44 -78 -50 -87 -5 -9 -32 -56 -60 -104
-27 -48 -57 -99 -65 -113 -20 -33 -136 -236 -158 -276 -9 -16 -20 -32 -24 -33
-5 -2 -8 -9 -8 -17 0 -7 -7 -18 -15 -25 -8 -7 -15 -21 -15 -31 0 -11 -4 -19
-10 -19 -5 0 -12 -11 -16 -25 -3 -14 -10 -25 -15 -25 -5 0 -9 -4 -9 -9 0 -5
-34 -67 -75 -136 -41 -70 -75 -131 -75 -135 0 -4 -7 -13 -15 -20 -8 -7 -13
-16 -10 -20 3 -4 -2 -13 -9 -19 -8 -7 -24 -31 -35 -54 -12 -23 -26 -49 -31
-57 -14 -21 -138 -235 -169 -292 -22 -42 -51 -64 -51 -40 0 4 -40 79 -90 166
-49 87 -90 162 -90 167 0 5 -4 9 -9 9 -5 0 -14 12 -20 28 -5 15 -23 50 -39 78
-114 198 -197 342 -206 359 -6 11 -16 27 -23 35 -6 8 -11 17 -10 20 0 3 -17
37 -40 75 -44 77 -80 141 -109 195 -11 19 -22 37 -25 40 -3 3 -21 34 -41 70
-19 36 -49 89 -66 118 -18 29 -32 55 -32 57 0 3 -18 34 -40 70 -22 36 -40 67
-40 69 0 2 -22 42 -50 90 -27 48 -50 91 -50 96 0 6 -4 10 -9 10 -5 0 -11 8
-14 18 -3 9 -22 44 -41 77 -20 33 -39 67 -43 75 -4 8 -40 72 -80 142 -40 70
-73 132 -73 138 0 5 -4 10 -9 10 -5 0 -11 8 -14 18 -4 9 -17 36 -31 60 l-24
43 45 77 c25 42 53 88 62 102 8 14 16 27 16 30 0 3 8 16 17 30 8 14 49 84 91
155 41 72 100 175 132 230 32 55 65 114 75 130 20 36 79 136 101 173 15 26 56
99 86 152 8 14 22 39 32 55 23 38 55 93 101 175 20 36 70 121 110 190 40 69
84 145 98 170 13 25 39 70 57 100 18 30 42 72 54 93 47 83 61 107 85 146 15
22 26 43 26 46 0 3 12 24 27 48 15 23 32 51 38 62 20 36 60 106 174 304 61
106 111 197 111 201 0 5 4 10 8 12 10 4 102 164 102 178 0 5 3 10 8 10 4 0 12
10 18 23 22 45 59 112 64 117 3 3 42 68 85 145 44 77 82 142 85 145 3 3 14 23
25 45 11 22 23 42 26 45 3 3 12 17 20 33 8 15 47 83 87 152 39 69 72 129 72
135 0 5 3 10 8 10 4 0 18 21 32 48 13 26 38 70 56 97 17 28 37 65 45 83 8 17
17 32 21 32 5 0 8 7 8 15 0 8 5 15 10 15 6 0 10 5 10 10 0 6 18 40 40 76 22
36 40 68 40 71 0 3 20 39 45 80 25 40 45 76 45 78 0 8 64 110 73 116 5 3 9 10
9 15 0 8 16 37 101 184 14 25 38 67 53 94 31 59 24 66 120 -104z"/>
</g>
</svg>
