<svg width="295" height="48" viewBox="0 0 295 48" fill="none" xmlns="http://www.w3.org/2000/svg">
<path d="M0 30.0877V39C0 43.9706 4.02943 48 9 48H286C290.971 48 295 43.9706 295 39V15.9066C295 8.70023 286.953 4.41642 280.975 8.44029L274.864 12.5535C271.778 14.6304 267.733 14.5952 264.683 12.4648L256.615 6.82711C254.094 5.0661 250.849 4.7136 248.01 5.89235L224.96 15.4598C222.599 16.44 219.932 16.3696 217.626 15.2662L194.787 4.33966C192.353 3.17522 189.525 3.16419 187.082 4.30961L175.79 9.60439C173.242 10.7987 170.283 10.7332 167.791 9.42739L158.527 4.57261C156.035 3.26681 153.076 3.20133 150.529 4.39561L139.386 9.62027C136.858 10.8056 133.923 10.7504 131.441 9.47103L115.418 1.21041C112.74 -0.170288 109.548 -0.119169 106.916 1.3466L98.9301 5.79273C96.4367 7.18101 93.4326 7.30445 90.8337 6.12539L87.1707 4.46362C84.4624 3.23494 81.322 3.42349 78.7802 4.96739L64.1022 13.8827C61.8868 15.2284 59.1988 15.5535 56.7264 14.7748L52.838 13.5502C50.693 12.8747 48.3728 13.0266 46.3343 13.9762L35.0186 19.2471C33.2716 20.0608 31.3096 20.2923 29.4212 19.9075L18.1777 17.6162C16.218 17.2168 14.181 17.4816 12.3885 18.3687L5.00792 22.0215C1.94083 23.5395 0 26.6655 0 30.0877Z" fill="url(#paint0_linear)"/>
<defs>
<linearGradient id="paint0_linear" x1="147.5" y1="-1" x2="147.5" y2="48" gradientUnits="userSpaceOnUse">
<stop stop-color="#4E0084"/>
<stop offset="1" stop-color="#4E0084" stop-opacity="0"/>
</linearGradient>
</defs>
</svg>
