<svg width="594" height="549" viewBox="0 0 594 549" fill="none" xmlns="http://www.w3.org/2000/svg">
<path d="M481.249 7.92044L391.41 163.953L296.944 0L202.59 163.953L112.638 7.92044L0 203.555L198.978 549L296.944 378.824L395.022 549L594 203.555L481.249 7.92044ZM198.978 498.083L29.3445 203.555L112.638 58.8376L282.271 353.365L198.978 498.083ZM217.262 189.412L296.944 50.9171L376.738 189.412L296.944 327.906L217.262 189.412ZM395.022 498.083L311.616 353.365L481.249 58.8376L564.656 203.555L395.022 498.083Z" fill="url(#paint0_linear)"/>
<path d="M481.249 7.92044L391.41 163.953L296.944 0L202.59 163.953L112.638 7.92044L0 203.555L198.978 549L296.944 378.824L395.022 549L594 203.555L481.249 7.92044ZM198.978 498.083L29.3445 203.555L112.638 58.8376L282.271 353.365L198.978 498.083ZM217.262 189.412L296.944 50.9171L376.738 189.412L296.944 327.906L217.262 189.412ZM395.022 498.083L311.616 353.365L481.249 58.8376L564.656 203.555L395.022 498.083Z" fill="url(#paint1_radial)"/>
<path d="M481.249 7.92044L391.41 163.953L296.944 0L202.59 163.953L112.638 7.92044L0 203.555L198.978 549L296.944 378.824L395.022 549L594 203.555L481.249 7.92044ZM198.978 498.083L29.3445 203.555L112.638 58.8376L282.271 353.365L198.978 498.083ZM217.262 189.412L296.944 50.9171L376.738 189.412L296.944 327.906L217.262 189.412ZM395.022 498.083L311.616 353.365L481.249 58.8376L564.656 203.555L395.022 498.083Z" fill="url(#paint2_radial)"/>
<path d="M481.249 7.92044L391.41 163.953L296.944 0L202.59 163.953L112.638 7.92044L0 203.555L198.978 549L296.944 378.824L395.022 549L594 203.555L481.249 7.92044ZM198.978 498.083L29.3445 203.555L112.638 58.8376L282.271 353.365L198.978 498.083ZM217.262 189.412L296.944 50.9171L376.738 189.412L296.944 327.906L217.262 189.412ZM395.022 498.083L311.616 353.365L481.249 58.8376L564.656 203.555L395.022 498.083Z" fill="url(#paint3_radial)"/>
<defs>
<linearGradient id="paint0_linear" x1="0" y1="216.113" x2="594.174" y2="216.113" gradientUnits="userSpaceOnUse">
<stop stop-color="#578EEE"/>
<stop offset="1" stop-color="#C467E8"/>
</linearGradient>
<radialGradient id="paint1_radial" cx="0" cy="0" r="1" gradientUnits="userSpaceOnUse" gradientTransform="translate(295.844 274.154) rotate(59.1606) scale(378.271 407.878)">
<stop stop-color="#80C1F2"/>
<stop offset="1" stop-color="white" stop-opacity="0"/>
<stop offset="1" stop-color="#8FCCFB" stop-opacity="0"/>
</radialGradient>
<radialGradient id="paint2_radial" cx="0" cy="0" r="1" gradientUnits="userSpaceOnUse" gradientTransform="translate(-63.3951 213.643) rotate(24.1641) scale(295.646 316.414)">
<stop stop-color="#A978C2"/>
<stop offset="1" stop-color="#A470BE" stop-opacity="0"/>
</radialGradient>
<radialGradient id="paint3_radial" cx="0" cy="0" r="1" gradientUnits="userSpaceOnUse" gradientTransform="translate(162.838 565.597) rotate(-56.6147) scale(329.812 355.439)">
<stop stop-color="#4582FF"/>
<stop offset="1" stop-color="#7AA5FE" stop-opacity="0"/>
</radialGradient>
</defs>
</svg>
