<svg width="73" height="77" viewBox="0 0 73 77" fill="none" xmlns="http://www.w3.org/2000/svg">
<g filter="url(#filter0_d_507:49567)">
<path d="M40.2707 34.9857C39.1205 34.9857 38.2125 35.9741 38.2125 37.2045C38.2125 38.435 39.1407 39.4234 40.2707 39.4234C41.4209 39.4234 42.329 38.435 42.329 37.2045C42.329 35.9741 41.4007 34.9857 40.2707 34.9857ZM32.9054 34.9857C31.7552 34.9857 30.8472 35.9741 30.8472 37.2045C30.8472 38.435 31.7754 39.4234 32.9054 39.4234C34.0556 39.4234 34.9637 38.435 34.9637 37.2045C34.9838 35.9741 34.0556 34.9857 32.9054 34.9857Z" fill="#808080"/>
<path d="M40.2707 34.9857C39.1205 34.9857 38.2125 35.9741 38.2125 37.2045C38.2125 38.435 39.1407 39.4234 40.2707 39.4234C41.4209 39.4234 42.329 38.435 42.329 37.2045C42.329 35.9741 41.4007 34.9857 40.2707 34.9857ZM32.9054 34.9857C31.7552 34.9857 30.8472 35.9741 30.8472 37.2045C30.8472 38.435 31.7754 39.4234 32.9054 39.4234C34.0556 39.4234 34.9637 38.435 34.9637 37.2045C34.9838 35.9741 34.0556 34.9857 32.9054 34.9857Z" fill="white"/>
<path d="M50.0787 18.203H23.039C20.7588 18.203 18.9023 20.0588 18.9023 22.3382V49.3679C18.9023 51.6473 20.7588 53.5031 23.039 53.5031H45.9219L44.8524 49.8117L47.4353 52.1919L49.8769 54.4309L54.2356 58.203V22.3382C54.2154 20.0588 52.3589 18.203 50.0787 18.203ZM42.2897 44.325C42.2897 44.325 41.5632 43.4577 40.9579 42.7113C43.6013 41.965 44.6102 40.3311 44.6102 40.3311C43.7829 40.8757 42.9959 41.259 42.2897 41.5212C41.2807 41.9448 40.3121 42.207 39.3637 42.3886C37.4266 42.7517 35.6508 42.6508 34.1374 42.3684C32.9872 42.1465 31.9984 41.844 31.1711 41.501C30.707 41.3195 30.2025 41.0976 29.698 40.8152C29.6375 40.7749 29.577 40.7547 29.5164 40.7144C29.4761 40.6942 29.4559 40.674 29.4357 40.674C29.0725 40.4723 28.8707 40.3311 28.8707 40.3311C28.8707 40.3311 29.8393 41.9246 32.402 42.6912C31.7966 43.4577 31.05 44.3452 31.05 44.3452C26.5905 44.204 24.8955 41.2993 24.8955 41.2993C24.8955 34.8646 27.8012 29.6402 27.8012 29.6402C30.707 27.4819 33.4513 27.5424 33.4513 27.5424L33.6531 27.7844C30.0209 28.8132 28.3662 30.4067 28.3662 30.4067C28.3662 30.4067 28.8102 30.1647 29.5568 29.8419C31.7159 28.8939 33.4311 28.6518 34.1374 28.5711C34.2585 28.551 34.3594 28.5308 34.4804 28.5308C35.7113 28.3694 37.1037 28.3291 38.5566 28.4904C40.4736 28.7123 42.5318 29.2771 44.6304 30.4067C44.6304 30.4067 43.0363 28.8939 39.6059 27.8651L39.8884 27.5424C39.8884 27.5424 42.6529 27.4819 45.5385 29.6402C45.5385 29.6402 48.4442 34.8646 48.4442 41.2993C48.4442 41.2792 46.7492 44.1838 42.2897 44.325Z" fill="#808080"/>
<path d="M50.0787 18.203H23.039C20.7588 18.203 18.9023 20.0588 18.9023 22.3382V49.3679C18.9023 51.6473 20.7588 53.5031 23.039 53.5031H45.9219L44.8524 49.8117L47.4353 52.1919L49.8769 54.4309L54.2356 58.203V22.3382C54.2154 20.0588 52.3589 18.203 50.0787 18.203ZM42.2897 44.325C42.2897 44.325 41.5632 43.4577 40.9579 42.7113C43.6013 41.965 44.6102 40.3311 44.6102 40.3311C43.7829 40.8757 42.9959 41.259 42.2897 41.5212C41.2807 41.9448 40.3121 42.207 39.3637 42.3886C37.4266 42.7517 35.6508 42.6508 34.1374 42.3684C32.9872 42.1465 31.9984 41.844 31.1711 41.501C30.707 41.3195 30.2025 41.0976 29.698 40.8152C29.6375 40.7749 29.577 40.7547 29.5164 40.7144C29.4761 40.6942 29.4559 40.674 29.4357 40.674C29.0725 40.4723 28.8707 40.3311 28.8707 40.3311C28.8707 40.3311 29.8393 41.9246 32.402 42.6912C31.7966 43.4577 31.05 44.3452 31.05 44.3452C26.5905 44.204 24.8955 41.2993 24.8955 41.2993C24.8955 34.8646 27.8012 29.6402 27.8012 29.6402C30.707 27.4819 33.4513 27.5424 33.4513 27.5424L33.6531 27.7844C30.0209 28.8132 28.3662 30.4067 28.3662 30.4067C28.3662 30.4067 28.8102 30.1647 29.5568 29.8419C31.7159 28.8939 33.4311 28.6518 34.1374 28.5711C34.2585 28.551 34.3594 28.5308 34.4804 28.5308C35.7113 28.3694 37.1037 28.3291 38.5566 28.4904C40.4736 28.7123 42.5318 29.2771 44.6304 30.4067C44.6304 30.4067 43.0363 28.8939 39.6059 27.8651L39.8884 27.5424C39.8884 27.5424 42.6529 27.4819 45.5385 29.6402C45.5385 29.6402 48.4442 34.8646 48.4442 41.2993C48.4442 41.2792 46.7492 44.1838 42.2897 44.325Z" fill="white"/>
</g>
<defs>
<filter id="filter0_d_507:49567" x="0.902344" y="0.203003" width="71.3333" height="76" filterUnits="userSpaceOnUse" color-interpolation-filters="sRGB">
<feFlood flood-opacity="0" result="BackgroundImageFix"/>
<feColorMatrix in="SourceAlpha" type="matrix" values="0 0 0 0 0 0 0 0 0 0 0 0 0 0 0 0 0 0 127 0" result="hardAlpha"/>
<feOffset/>
<feGaussianBlur stdDeviation="9"/>
<feColorMatrix type="matrix" values="0 0 0 0 0 0 0 0 0 0.698039 0 0 0 0 1 0 0 0 1 0"/>
<feBlend mode="normal" in2="BackgroundImageFix" result="effect1_dropShadow_507:49567"/>
<feBlend mode="normal" in="SourceGraphic" in2="effect1_dropShadow_507:49567" result="shape"/>
</filter>
</defs>
</svg>
