<svg width="86" height="76" viewBox="0 0 86 76" fill="none" xmlns="http://www.w3.org/2000/svg">
<g filter="url(#filter0_d_507:49573)">
<path d="M33.4906 58.0001C52.0788 58.0001 62.244 42.6125 62.244 29.269C62.244 28.8319 62.2351 28.3968 62.2155 27.9637C64.1887 26.5384 65.9038 24.7596 67.2565 22.7348C65.4457 23.539 63.4972 24.0804 61.453 24.3245C63.5395 23.0744 65.1413 21.0968 65.897 18.7393C63.9444 19.8959 61.7821 20.7366 59.4798 21.1904C57.6357 19.2277 55.0103 18.0001 52.1032 18.0001C46.5224 18.0001 41.9968 22.5223 41.9968 28.0966C41.9968 28.889 42.0855 29.6597 42.2589 30.3991C33.8598 29.9768 26.4121 25.9586 21.4277 19.8487C20.5598 21.341 20.0593 23.0744 20.0593 24.924C20.0593 28.4274 21.8434 31.5202 24.5565 33.3295C22.8985 33.2783 21.341 32.8235 19.9797 32.0665C19.9782 32.1089 19.9782 32.1502 19.9782 32.1955C19.9782 37.0859 23.4616 41.1689 28.0857 42.0941C27.2365 42.3255 26.3431 42.4495 25.4209 42.4495C24.7708 42.4495 24.1373 42.3856 23.5216 42.2674C24.8082 46.2796 28.5389 49.1993 32.962 49.2809C29.5032 51.9898 25.1461 53.6033 20.4106 53.6033C19.5959 53.6033 18.791 53.557 18 53.4635C22.4725 56.328 27.7832 57.9994 33.4911 57.9994" fill="#808080"/>
<path d="M33.4906 58.0001C52.0788 58.0001 62.244 42.6125 62.244 29.269C62.244 28.8319 62.2351 28.3968 62.2155 27.9637C64.1887 26.5384 65.9038 24.7596 67.2565 22.7348C65.4457 23.539 63.4972 24.0804 61.453 24.3245C63.5395 23.0744 65.1413 21.0968 65.897 18.7393C63.9444 19.8959 61.7821 20.7366 59.4798 21.1904C57.6357 19.2277 55.0103 18.0001 52.1032 18.0001C46.5224 18.0001 41.9968 22.5223 41.9968 28.0966C41.9968 28.889 42.0855 29.6597 42.2589 30.3991C33.8598 29.9768 26.4121 25.9586 21.4277 19.8487C20.5598 21.341 20.0593 23.0744 20.0593 24.924C20.0593 28.4274 21.8434 31.5202 24.5565 33.3295C22.8985 33.2783 21.341 32.8235 19.9797 32.0665C19.9782 32.1089 19.9782 32.1502 19.9782 32.1955C19.9782 37.0859 23.4616 41.1689 28.0857 42.0941C27.2365 42.3255 26.3431 42.4495 25.4209 42.4495C24.7708 42.4495 24.1373 42.3856 23.5216 42.2674C24.8082 46.2796 28.5389 49.1993 32.962 49.2809C29.5032 51.9898 25.1461 53.6033 20.4106 53.6033C19.5959 53.6033 18.791 53.557 18 53.4635C22.4725 56.328 27.7832 57.9994 33.4911 57.9994" fill="white"/>
</g>
<defs>
<filter id="filter0_d_507:49573" x="0" y="6.10352e-05" width="85.2563" height="76" filterUnits="userSpaceOnUse" color-interpolation-filters="sRGB">
<feFlood flood-opacity="0" result="BackgroundImageFix"/>
<feColorMatrix in="SourceAlpha" type="matrix" values="0 0 0 0 0 0 0 0 0 0 0 0 0 0 0 0 0 0 127 0" result="hardAlpha"/>
<feOffset/>
<feGaussianBlur stdDeviation="9"/>
<feColorMatrix type="matrix" values="0 0 0 0 0 0 0 0 0 0.698039 0 0 0 0 1 0 0 0 1 0"/>
<feBlend mode="normal" in2="BackgroundImageFix" result="effect1_dropShadow_507:49573"/>
<feBlend mode="normal" in="SourceGraphic" in2="effect1_dropShadow_507:49573" result="shape"/>
</filter>
</defs>
</svg>
