<svg width="15" height="15" viewBox="0 0 15 15" fill="none" xmlns="http://www.w3.org/2000/svg">
<path d="M14.0203 13.0518L9.45527 8.48672C10.1637 7.5709 10.5469 6.45117 10.5469 5.27344C10.5469 3.86367 9.99668 2.5418 9.00176 1.54512C8.00683 0.548437 6.68144 0 5.27344 0C3.86543 0 2.54004 0.550195 1.54512 1.54512C0.548437 2.54004 0 3.86367 0 5.27344C0 6.68144 0.550195 8.00683 1.54512 9.00176C2.54004 9.99844 3.86367 10.5469 5.27344 10.5469C6.45117 10.5469 7.56914 10.1637 8.48496 9.45703L13.05 14.0203C13.0634 14.0337 13.0793 14.0443 13.0968 14.0516C13.1143 14.0588 13.133 14.0626 13.152 14.0626C13.1709 14.0626 13.1896 14.0588 13.2071 14.0516C13.2246 14.0443 13.2405 14.0337 13.2539 14.0203L14.0203 13.2557C14.0337 13.2423 14.0443 13.2264 14.0516 13.2089C14.0588 13.1914 14.0626 13.1726 14.0626 13.1537C14.0626 13.1348 14.0588 13.116 14.0516 13.0985C14.0443 13.081 14.0337 13.0651 14.0203 13.0518ZM8.05781 8.05781C7.3125 8.80137 6.32461 9.21094 5.27344 9.21094C4.22227 9.21094 3.23437 8.80137 2.48906 8.05781C1.74551 7.3125 1.33594 6.32461 1.33594 5.27344C1.33594 4.22227 1.74551 3.23262 2.48906 2.48906C3.23437 1.74551 4.22227 1.33594 5.27344 1.33594C6.32461 1.33594 7.31426 1.74375 8.05781 2.48906C8.80137 3.23437 9.21094 4.22227 9.21094 5.27344C9.21094 6.32461 8.80137 7.31426 8.05781 8.05781Z" fill="white"/>
</svg>
