<svg width="16" height="14" viewBox="0 0 16 14" fill="none" xmlns="http://www.w3.org/2000/svg">
<path d="M15.0162 12.6668L10.4328 8.37031C11.144 7.50836 11.5288 6.4545 11.5288 5.34605C11.5288 4.01921 10.9764 2.77509 9.97745 1.83704C8.97852 0.898989 7.6478 0.382812 6.23412 0.382812C4.82044 0.382812 3.48972 0.900643 2.49079 1.83704C1.4901 2.77344 0.939453 4.01921 0.939453 5.34605C0.939453 6.67123 1.49186 7.91866 2.49079 8.85505C3.48972 9.7931 4.81868 10.3093 6.23412 10.3093C7.4166 10.3093 8.53907 9.94862 9.45857 9.28355L14.042 13.5784C14.0554 13.591 14.0714 13.601 14.089 13.6078C14.1065 13.6146 14.1253 13.6182 14.1444 13.6182C14.1634 13.6182 14.1822 13.6146 14.1998 13.6078C14.2173 13.601 14.2333 13.591 14.2467 13.5784L15.0162 12.8587C15.0297 12.8461 15.0403 12.8312 15.0476 12.8147C15.0549 12.7982 15.0586 12.7806 15.0586 12.7628C15.0586 12.745 15.0549 12.7273 15.0476 12.7108C15.0403 12.6944 15.0297 12.6794 15.0162 12.6668ZM9.02971 7.96664C8.28139 8.66645 7.28952 9.05193 6.23412 9.05193C5.17872 9.05193 4.18685 8.66645 3.43854 7.96664C2.69199 7.26516 2.28077 6.33538 2.28077 5.34605C2.28077 4.35671 2.69199 3.42528 3.43854 2.72546C4.18685 2.02564 5.17872 1.64017 6.23412 1.64017C7.28952 1.64017 8.28316 2.02399 9.02971 2.72546C9.77625 3.42693 10.1875 4.35671 10.1875 5.34605C10.1875 6.33538 9.77625 7.26682 9.02971 7.96664Z" fill="#BFBFBF"/>
</svg>
