<svg width="33" height="33" viewBox="0 0 33 33" fill="none" xmlns="http://www.w3.org/2000/svg">
<path d="M22.4154 27.1999H10.6726C7.97588 27.1999 5.78809 25.0139 5.78809 22.3153V10.5744C5.78809 7.87768 7.97405 5.68988 10.6726 5.68988H22.4135C25.1103 5.68988 27.2981 7.87585 27.2981 10.5744V22.3153C27.2981 25.0139 25.1121 27.1999 22.4154 27.1999Z" stroke="white" stroke-miterlimit="10"/>
<path d="M18.2283 18.6812H14.8597C14.5558 18.6812 14.3086 18.434 14.3086 18.1301V14.7615C14.3086 14.4575 14.5558 14.2104 14.8597 14.2104H18.2283C18.5322 14.2104 18.7794 14.4575 18.7794 14.7615V18.1301C18.7794 18.434 18.5322 18.6812 18.2283 18.6812Z" stroke="white" stroke-miterlimit="10"/>
<path d="M16.544 23.9942C20.7128 23.9942 24.0923 20.6146 24.0923 16.4458C24.0923 12.2769 20.7128 8.89743 16.544 8.89743C12.3751 8.89743 8.99561 12.2769 8.99561 16.4458C8.99561 20.6146 12.3751 23.9942 16.544 23.9942Z" stroke="white" stroke-miterlimit="10"/>
</svg>
