<svg width="320" height="320" viewBox="0 0 320 320" fill="none" xmlns="http://www.w3.org/2000/svg">
<rect width="320" height="320" fill="#10052E"/>
<rect width="320" height="320" fill="url(#paint0_linear_2440_38586)" fill-opacity="0.25"/>
<path d="M160 112.556C163.743 112.556 166.778 109.521 166.778 105.778C166.778 102.035 163.743 99 160 99C156.257 99 153.222 102.035 153.222 105.778C153.222 109.521 156.257 112.556 160 112.556ZM160 112.556V132.889M112.556 160C112.556 156.257 109.521 153.222 105.778 153.222C102.035 153.222 99 156.257 99 160C99 163.743 102.035 166.778 105.778 166.778C109.521 166.778 112.556 163.743 112.556 160ZM112.556 160H132.889M160 207.444C156.257 207.444 153.222 210.479 153.222 214.222C153.222 217.965 156.257 221 160 221C163.743 221 166.778 217.965 166.778 214.222C166.778 210.479 163.743 207.444 160 207.444ZM160 207.444V187.111M193.549 193.548C190.902 196.194 190.902 200.486 193.549 203.133C196.195 205.78 200.487 205.78 203.134 203.133C205.781 200.486 205.781 196.194 203.134 193.548C200.487 190.901 196.195 190.901 193.549 193.548ZM193.549 193.548L178.639 178.639M187.111 160C187.111 174.973 174.973 187.111 160 187.111M187.111 160C187.111 145.027 174.973 132.889 160 132.889M187.111 160H209.139M160 187.111C145.027 187.111 132.889 174.973 132.889 160M132.889 160C132.889 145.027 145.027 132.889 160 132.889M126.111 193.889L140.83 179.17M126.111 126.111L140.83 140.83M193.889 126.111L179.17 140.83M126.452 116.867C129.099 119.514 129.099 123.806 126.452 126.452C123.805 129.099 119.514 129.099 116.867 126.452C114.22 123.806 114.22 119.514 116.867 116.867C119.514 114.22 123.805 114.22 126.452 116.867ZM203.134 126.452C200.487 129.099 196.195 129.099 193.548 126.452C190.901 123.805 190.901 119.514 193.548 116.867C196.195 114.22 200.487 114.22 203.134 116.867C205.78 119.514 205.78 123.805 203.134 126.452ZM126.452 203.134C123.805 205.781 119.513 205.781 116.866 203.134C114.22 200.487 114.22 196.195 116.866 193.549C119.513 190.902 123.805 190.902 126.452 193.549C129.099 196.195 129.099 200.487 126.452 203.134ZM214.222 153.222C217.965 153.222 221 156.257 221 160C221 163.743 217.965 166.778 214.222 166.778C210.479 166.778 207.444 163.743 207.444 160C207.444 156.257 210.479 153.222 214.222 153.222Z" stroke="url(#paint1_linear_2440_38586)" stroke-width="4"/>
<defs>
<linearGradient id="paint0_linear_2440_38586" x1="0" y1="320" x2="320" y2="320" gradientUnits="userSpaceOnUse">
<stop stop-color="#5257FF"/>
<stop offset="1" stop-color="#52CBFF"/>
</linearGradient>
<linearGradient id="paint1_linear_2440_38586" x1="99" y1="221" x2="221" y2="221" gradientUnits="userSpaceOnUse">
<stop stop-color="#5257FF"/>
<stop offset="1" stop-color="#52CBFF"/>
</linearGradient>
</defs>
</svg>
