<svg width="294" height="115" viewBox="0 0 294 115" fill="none" xmlns="http://www.w3.org/2000/svg">
<path d="M58.3571 43.0905C31.2429 41.0931 19.25 57.5722 1 71.0552V115H293V1.14355C283.614 9.7993 259.211 28.7088 236.686 35.1006C208.529 43.0905 210.093 28.6089 179.329 27.1108C148.564 25.6127 143.35 43.0905 123.014 47.5849C102.679 52.0793 85.4714 45.088 58.3571 43.0905Z" fill="#F173CE" fill-opacity="0.4"/>
<path d="M1 71.0552C19.25 57.5722 31.2429 41.0931 58.3571 43.0905C85.4714 45.088 102.679 52.0793 123.014 47.5849C143.35 43.0905 148.564 25.6127 179.329 27.1108C210.093 28.6089 208.529 43.0904 236.686 35.1006C259.211 28.7088 283.614 9.7993 293 1.14355" stroke="#F173CE" stroke-width="2"/>
</svg>
