<svg width="22" height="22" viewBox="0 0 22 22" fill="none" xmlns="http://www.w3.org/2000/svg">
<path d="M4.75 18.5V21M17.25 18.5V21M11 12.25C13.0711 12.25 14.75 10.5711 14.75 8.5C14.75 6.42893 13.0711 4.75 11 4.75C8.92893 4.75 7.25 6.42893 7.25 8.5C7.25 10.5711 8.92893 12.25 11 12.25ZM11 12.25V15.375M3.5 18.5H18.5C19.8807 18.5 21 17.3807 21 16V3.5C21 2.11929 19.8807 1 18.5 1H3.5C2.11929 1 1 2.11929 1 3.5V16C1 17.3807 2.11929 18.5 3.5 18.5Z" stroke="#D9D9D9" stroke-miterlimit="10" stroke-linecap="round" stroke-linejoin="round"/>
</svg>
