<svg xmlns="http://www.w3.org/2000/svg" width="29" height="29"><path d="M 14.5 2.522 C 21.115 2.522 26.478 7.885 26.478 14.5 C 26.478 21.115 21.115 26.478 14.5 26.478 C 7.885 26.478 2.522 21.115 2.522 14.5 C 2.522 7.885 7.885 2.522 14.5 2.522 Z" fill="rgba(114, 114, 114, 1.00)"></path><path d="M 27.477 2.154 C 28.428 3.105 23.608 9.468 16.71 16.365 C 9.813 23.263 3.45 28.083 2.499 27.132 C 1.548 26.18 6.368 19.817 13.265 12.92 C 20.163 6.023 26.525 1.202 27.477 2.154 Z" fill="transparent" stroke-width="1.26" stroke="rgba(114, 114, 114, 1.00)"></path><path d="M 26.216 0.893 C 27.167 1.844 22.347 8.207 15.45 15.104 C 8.552 22.002 2.189 26.822 1.238 25.871 C 0.287 24.919 5.107 18.557 12.004 11.659 C 18.902 4.762 25.265 -0.059 26.216 0.893 Z" fill="transparent" stroke-width="1.26" stroke="rgba(114, 114, 114, 1.00)"></path><path d="M 14.5 5.043 C 19.723 5.043 23.957 9.277 23.957 14.5 C 23.957 19.723 19.723 23.957 14.5 23.957 C 9.277 23.957 5.043 19.723 5.043 14.5 C 5.043 9.277 9.277 5.043 14.5 5.043 Z" fill="rgba(41, 43, 45, 1.00)"></path><path d="M 22.475 7.155 C 23.094 7.774 19.96 11.909 15.477 16.393 C 10.994 20.876 6.858 24.009 6.24 23.391 C 5.621 22.772 8.754 18.637 13.238 14.153 C 17.721 9.67 21.857 6.537 22.475 7.155 Z" fill="transparent" stroke-width="1.26" stroke="rgba(114, 114, 114, 1.00)"></path></svg>