<svg width="31" height="30" viewBox="0 0 31 30" fill="none" xmlns="http://www.w3.org/2000/svg">
<path d="M0 10.05C0.043875 9.6683 0.086625 9.28655 0.132375 8.9048C0.3225 7.3088 1.19662 6.17855 2.59312 5.38317C3.98589 4.65136 5.46796 4.10389 7.002 3.75455C11.3123 2.61117 15.6124 1.4288 19.9271 0.300048C20.7137 0.101752 21.5216 0.000994693 22.3328 4.76943e-05C23.2369 -0.00595231 23.805 0.554673 24.0623 1.38755C24.1656 1.70644 24.2246 2.03806 24.2374 2.37305C24.2595 3.40092 24.2453 4.42992 24.2453 5.49042H22.8506C22.8506 4.81955 22.8645 4.1648 22.8461 3.5108C22.8315 2.9858 22.7891 2.4578 22.7389 1.93355C22.7411 1.84743 22.7238 1.76194 22.6881 1.68351C22.6525 1.60509 22.5995 1.53579 22.5331 1.48086C22.4668 1.42592 22.3888 1.38678 22.3051 1.36639C22.2214 1.346 22.1342 1.3449 22.05 1.36317C21.4367 1.41916 20.8281 1.51727 20.2283 1.6568C15.3858 2.9448 10.5483 4.24767 5.71575 5.56542C4.65156 5.85528 3.64811 6.33401 2.75325 6.9788C2.61732 7.07716 2.49816 7.19683 2.40037 7.33317C3.5865 6.7433 4.8525 6.93155 6.08925 6.9293C12.5393 6.91767 18.9851 6.9443 25.4333 6.91242C27.6682 6.90155 29.2226 8.25755 29.7281 9.66755C29.8924 10.1145 29.9804 10.5857 29.9888 11.0618C30.0072 16.023 30.0103 20.9843 29.9978 25.9455C29.9944 28.0009 28.6575 29.5489 26.5901 29.9348C26.5423 29.9505 26.4968 29.9724 26.4548 30H3.55313C3.48388 29.97 3.41257 29.9449 3.33975 29.925C2.61704 29.8064 1.9411 29.4906 1.38637 29.0124C0.831641 28.5342 0.419642 27.9122 0.19575 27.2149C0.115125 26.9899 0.0645 26.7522 0 26.5204V10.05ZM15.0041 28.5938H25.662C27.5243 28.5938 28.5705 27.57 28.5709 25.7457C28.5709 20.9397 28.5352 16.1329 28.5904 11.3273C28.6095 9.66267 27.0064 8.29992 25.509 8.30742C18.4965 8.34305 11.484 8.32092 4.4715 8.32505C3.70199 8.308 2.95635 8.59271 2.39403 9.1183C1.83172 9.64389 1.49738 10.3686 1.4625 11.1375C1.4415 11.5362 1.437 11.9359 1.43663 12.3353C1.43512 16.8195 1.43512 21.3037 1.43663 25.7877C1.43663 27.558 2.49675 28.5915 4.30912 28.5919L15.0041 28.5938Z" fill="white"/>
<path d="M24.621 20.1927C24.3894 20.1943 24.1599 20.1499 23.9456 20.0623C23.7312 19.9747 23.5364 19.8455 23.3722 19.6823C23.208 19.519 23.0778 19.3248 22.9891 19.1109C22.9003 18.8971 22.8548 18.6678 22.8551 18.4362C22.8493 18.081 22.9496 17.7321 23.1431 17.4342C23.3367 17.1363 23.6147 16.9029 23.9416 16.7638C24.2685 16.6248 24.6295 16.5864 24.9783 16.6536C25.3272 16.7208 25.6481 16.8905 25.9 17.141C26.1518 17.3916 26.3233 17.7115 26.3923 18.06C26.4614 18.4085 26.4249 18.7697 26.2876 19.0973C26.1502 19.425 25.9183 19.7042 25.6214 19.8994C25.3246 20.0945 24.9762 20.1966 24.621 20.1927Z" fill="white"/>
</svg>
