<svg width="389" height="389" viewBox="0 0 120 120" fill="none" xmlns="http://www.w3.org/2000/svg">
<path d="M84.8147 21.1542L72.7152 43.8911L59.9925 20L47.2848 43.8911L35.1701 21.1542L20 49.6619L46.7984 100L59.9925 75.202L73.2016 100L100 49.6619L84.8147 21.1542ZM46.7984 92.5804L23.9521 49.6619L35.1701 28.5738L58.0163 71.4922L46.7984 92.5804ZM49.2609 47.601L59.9925 27.4196L70.7391 47.601L59.9925 67.7823L49.2609 47.601ZM73.2016 92.5804L61.9685 71.4922L84.8147 28.5738L96.0479 49.6619L73.2016 92.5804Z" fill="url(#paint0_linear_2590_38702)"/>
<path d="M84.8147 21.1542L72.7152 43.8911L59.9925 20L47.2848 43.8911L35.1701 21.1542L20 49.6619L46.7984 100L59.9925 75.202L73.2016 100L100 49.6619L84.8147 21.1542ZM46.7984 92.5804L23.9521 49.6619L35.1701 28.5738L58.0163 71.4922L46.7984 92.5804ZM49.2609 47.601L59.9925 27.4196L70.7391 47.601L59.9925 67.7823L49.2609 47.601ZM73.2016 92.5804L61.9685 71.4922L84.8147 28.5738L96.0479 49.6619L73.2016 92.5804Z" fill="url(#paint1_radial_2590_38702)"/>
<path d="M84.8147 21.1542L72.7152 43.8911L59.9925 20L47.2848 43.8911L35.1701 21.1542L20 49.6619L46.7984 100L59.9925 75.202L73.2016 100L100 49.6619L84.8147 21.1542ZM46.7984 92.5804L23.9521 49.6619L35.1701 28.5738L58.0163 71.4922L46.7984 92.5804ZM49.2609 47.601L59.9925 27.4196L70.7391 47.601L59.9925 67.7823L49.2609 47.601ZM73.2016 92.5804L61.9685 71.4922L84.8147 28.5738L96.0479 49.6619L73.2016 92.5804Z" fill="url(#paint2_radial_2590_38702)"/>
<path d="M84.8147 21.1542L72.7152 43.8911L59.9925 20L47.2848 43.8911L35.1701 21.1542L20 49.6619L46.7984 100L59.9925 75.202L73.2016 100L100 49.6619L84.8147 21.1542ZM46.7984 92.5804L23.9521 49.6619L35.1701 28.5738L58.0163 71.4922L46.7984 92.5804ZM49.2609 47.601L59.9925 27.4196L70.7391 47.601L59.9925 67.7823L49.2609 47.601ZM73.2016 92.5804L61.9685 71.4922L84.8147 28.5738L96.0479 49.6619L73.2016 92.5804Z" fill="url(#paint3_radial_2590_38702)"/>
<defs>
<linearGradient id="paint0_linear_2590_38702" x1="20" y1="51.4919" x2="100.023" y2="51.4919" gradientUnits="userSpaceOnUse">
<stop stop-color="#578EEE"/>
<stop offset="1" stop-color="#C467E8"/>
</linearGradient>
<radialGradient id="paint1_radial_2590_38702" cx="0" cy="0" r="1" gradientUnits="userSpaceOnUse" gradientTransform="translate(59.8443 59.9496) rotate(61.1092) scale(54.0553 56.0165)">
<stop stop-color="#80C1F2"/>
<stop offset="1" stop-color="#8FCCFB" stop-opacity="0"/>
</radialGradient>
<radialGradient id="paint2_radial_2590_38702" cx="0" cy="0" r="1" gradientUnits="userSpaceOnUse" gradientTransform="translate(11.4619 51.1319) rotate(25.8938) scale(40.3829 45.4622)">
<stop stop-color="#A978C2"/>
<stop offset="1" stop-color="#A470BE" stop-opacity="0"/>
</radialGradient>
<radialGradient id="paint3_radial_2590_38702" cx="0" cy="0" r="1" gradientUnits="userSpaceOnUse" gradientTransform="translate(41.931 102.419) rotate(-58.655) scale(46.9874 48.9634)">
<stop stop-color="#4582FF"/>
<stop offset="1" stop-color="#7AA5FE" stop-opacity="0"/>
</radialGradient>
</defs>
</svg>
