<svg width="33" height="32" viewBox="0 0 33 32" fill="none" xmlns="http://www.w3.org/2000/svg">
<path d="M20.0223 7.96916L26.75 6.31374L24.9301 12.7564L24.4331 15.3034L24.2687 17.7445L24.8205 18.9633L24.3235 21.3112L27.0807 23.9606L25.0946 26.9499L22.1729 27.255L15.2242 24.845L8.38686 26.9499L6.78809 22.1334L9.26939 16.1385L8.44351 13.2077L13.185 5L15.5567 8.25237L20.0223 7.96916Z" stroke="white" stroke-miterlimit="23.7982" stroke-linecap="round" stroke-linejoin="round"/>
<path d="M15.5568 8.25244L17.5667 11.3312L13.1011 16.1276L9.26953 16.1385" stroke="white" stroke-miterlimit="10" stroke-linecap="round" stroke-linejoin="round"/>
<path d="M26.7502 6.31372L20.5195 11.2635L24.4333 15.3034" stroke="white" stroke-miterlimit="10" stroke-linecap="round" stroke-linejoin="round"/>
<path d="M26.4377 23.3431L24.7695 23.8822V25.3238L26.2916 25.1484" stroke="white" stroke-miterlimit="10" stroke-linecap="round" stroke-linejoin="round"/>
<path d="M24.7693 23.8821L17.1116 21.3113L13.7003 22.3382L6.78809 22.1335" stroke="white" stroke-miterlimit="10" stroke-linecap="round" stroke-linejoin="round"/>
<path d="M19.335 19.6028L18.4251 18.0497L16.6016 19.1588L19.335 19.6028Z" stroke="white" stroke-miterlimit="10" stroke-linecap="round" stroke-linejoin="round"/>
<path d="M23.1724 19.2465L23.3057 17.8724L24.8205 18.9633L23.1724 19.2465Z" stroke="white" stroke-miterlimit="10" stroke-linecap="round" stroke-linejoin="round"/>
<path d="M23.1724 19.2465L24.3235 21.3112" stroke="white" stroke-miterlimit="10" stroke-linecap="round" stroke-linejoin="round"/>
</svg>
