<svg id="Layer_2" data-name="Layer 2" xmlns="http://www.w3.org/2000/svg" viewBox="0 0 33 33"><defs><style>.cls-1{fill:none;stroke:#fff;stroke-linecap:round;stroke-linejoin:round;}</style></defs><g id="Metamask"><path class="cls-1" d="M19,10l5.34-1.31-1.45,5.11-.39,2-.13,1.93.44,1-.4,1.86,2.19,2.1L23,25.08l-2.31.25-5.52-1.91L9.72,25.08,8.45,21.26l2-4.75-.66-2.33,3.77-6.51,1.88,2.58Z"/><path class="cls-1" d="M15.41,10.25,17,12.7l-3.54,3.8h-3"/><path class="cls-1" d="M24.29,8.72l-4.95,3.92,3.11,3.21"/><path class="cls-1" d="M24,22.22l-1.32.43v1.14l1.2-.13"/><path class="cls-1" d="M22.72,22.65l-6.08-2-2.71.82-5.48-.17"/><path class="cls-1" d="M18.4,19.26,17.68,18l-1.44.88Z"/><path class="cls-1" d="M21.45,19l.1-1.09,1.21.87Z"/><path class="cls-1" d="M21.45,19l.91,1.64"/></g></svg>