<svg width="33" height="33" viewBox="0 0 33 33" fill="none" xmlns="http://www.w3.org/2000/svg">
<path d="M17.31 20.4113L22.8067 25.7694C22.8693 25.8302 22.968 25.8302 23.0306 25.7694L30.4891 18.5765C30.6371 18.4342 30.6428 18.2008 30.5043 18.051L28.679 16.0739C28.5576 15.9411 28.3508 15.9354 28.2199 16.0587L22.9376 21.0867C22.875 21.1456 22.7782 21.1456 22.7156 21.0867L17.3081 15.9411C17.2455 15.8823 17.1488 15.8823 17.0861 15.9411L11.6768 21.0886C11.6141 21.1475 11.5174 21.1475 11.4548 21.0886L6.1725 16.0606C6.04159 15.9373 5.83667 15.943 5.71334 16.0758L3.88808 18.0529C3.74957 18.2027 3.75526 18.4361 3.90326 18.5784L11.3637 25.7694C11.4263 25.8302 11.525 25.8302 11.5876 25.7694L17.0843 20.4113C17.1488 20.3506 17.2474 20.3506 17.31 20.4113Z" stroke="white" stroke-miterlimit="10" stroke-linecap="round" stroke-linejoin="round"/>
<path d="M17.1979 12.2014C14.6933 12.2014 12.3539 13.3094 10.9422 15.0133C10.8208 15.1594 10.6007 15.1689 10.4679 15.036L8.68248 13.2525C8.57623 13.1463 8.55725 12.9812 8.63694 12.8541C10.1434 10.4596 13.3993 8.84494 17.1979 8.84494C20.9964 8.84494 24.2523 10.4596 25.7588 12.8541C25.8385 12.9812 25.8195 13.1463 25.7132 13.2525L23.9278 15.036C23.7931 15.1708 23.573 15.1594 23.4535 15.0133C22.0418 13.3113 19.7024 12.2014 17.1979 12.2014Z" stroke="white" stroke-miterlimit="10" stroke-linecap="round"/>
</svg>
