<svg width="149" height="71" viewBox="0 0 149 71" fill="none" xmlns="http://www.w3.org/2000/svg">
<g clip-path="url(#clip0)">
<path d="M0.415527 31V68C0.415527 70.2091 2.20639 72 4.41553 72H143.416C145.625 72 147.416 70.2091 147.416 68V40C147.416 40.539 146.956 40.9635 146.419 40.9208L136.688 40.1476C135.51 40.054 134.434 39.4446 133.748 38.4828L128.775 31.5106C127.424 29.6158 124.747 29.2703 122.959 30.7598L113.415 38.7098C111.849 40.0138 109.554 39.9329 108.084 38.5219L98.3053 29.133C96.7686 27.6577 94.3454 27.6455 92.7939 29.1053L88.8956 32.7733C87.2927 34.2816 84.7725 34.2115 83.2558 32.6166L80.1814 29.3834C78.6648 27.7885 76.1446 27.7184 74.5416 29.2267L70.7487 32.7955C69.1551 34.295 66.6523 34.2356 65.1316 32.6623L58.781 26.0921C57.1665 24.4218 54.4735 24.4735 52.9243 26.2045L50.4031 29.0216C48.9346 30.6624 46.4101 30.7915 44.7818 29.3091C43.1041 27.7816 40.4889 27.9718 39.0498 29.726L32.8381 37.2975C31.5718 38.8411 29.3538 39.1991 27.6662 38.1324C26.1448 37.1709 24.166 37.3575 22.8512 38.5865L18.7934 42.3797C17.4587 43.6273 15.4482 43.812 13.9085 42.8284L8.33767 39.2697C8.05734 39.0906 7.80044 38.8772 7.57292 38.6346L0.415527 31Z" fill="url(#paint0_linear)"/>
<g filter="url(#filter0_d)">
<path d="M-1.08447 30L7.65612 38.7406C7.8287 38.9132 8.0167 39.0696 8.21779 39.2079L13.8494 43.0813C15.4086 44.1537 17.506 43.9867 18.8759 42.681L22.8583 38.8854C24.1637 37.6412 26.1513 37.4529 27.6671 38.4297V38.4297C29.3463 39.5119 31.5716 39.1519 32.824 37.5954L39.0573 29.8485C40.4837 28.0758 43.1141 27.8847 44.7817 29.4327V29.4327C46.4006 30.9355 48.9407 30.8056 50.3979 29.1455L52.8997 26.2953C54.4525 24.5263 57.1895 24.4739 58.8088 26.1821L65.106 32.8248C66.6323 34.4348 69.1773 34.4952 70.7781 32.9594L74.512 29.3772C76.1221 27.8325 78.6847 27.9037 80.2065 29.5355L83.2308 32.7783C84.7526 34.41 87.3151 34.4812 88.9252 32.9365L92.7655 29.2522C94.3244 27.7567 96.7891 27.7691 98.3328 29.2803L108.059 38.8009C109.536 40.2468 111.871 40.3293 113.446 38.9913L122.923 30.9423C124.719 29.4165 127.439 29.767 128.79 31.6984L133.636 38.626C134.384 39.696 135.608 40.3333 136.913 40.3333H147.416" stroke="#BD5FFF"/>
</g>
</g>
<defs>
<filter id="filter0_d" x="-11.438" y="14.434" width="168.854" height="39.8516" filterUnits="userSpaceOnUse" color-interpolation-filters="sRGB">
<feFlood flood-opacity="0" result="BackgroundImageFix"/>
<feColorMatrix in="SourceAlpha" type="matrix" values="0 0 0 0 0 0 0 0 0 0 0 0 0 0 0 0 0 0 127 0"/>
<feOffset/>
<feGaussianBlur stdDeviation="5"/>
<feColorMatrix type="matrix" values="0 0 0 0 0.741176 0 0 0 0 0.372549 0 0 0 0 1 0 0 0 0.7 0"/>
<feBlend mode="normal" in2="BackgroundImageFix" result="effect1_dropShadow"/>
<feBlend mode="normal" in="SourceGraphic" in2="effect1_dropShadow" result="shape"/>
</filter>
<linearGradient id="paint0_linear" x1="73.9155" y1="23" x2="73.9155" y2="72" gradientUnits="userSpaceOnUse">
<stop stop-color="#4E0084"/>
<stop offset="1" stop-color="#4E0084" stop-opacity="0"/>
</linearGradient>
<clipPath id="clip0">
<rect width="148.184" height="71" fill="white" transform="translate(0.415527)"/>
</clipPath>
</defs>
</svg>
