<svg width="8" height="14" viewBox="0 0 8 14" fill="none" xmlns="http://www.w3.org/2000/svg">
<path d="M2.87753 9.67973H4.40813V9.60229C4.43364 8.00191 4.8418 7.30497 5.96424 6.59512C7.08668 5.90464 7.74994 4.91085 7.74994 3.4847C7.74994 1.47132 6.29587 0 4.05099 0C1.98468 0 0.345663 1.29063 0.25 3.4847H1.85713C1.95279 1.96176 3.00508 1.34226 4.05099 1.34226C5.24996 1.34226 6.21934 2.14245 6.21934 3.40727C6.21934 4.43332 5.63899 5.16898 4.89282 5.62715C3.64283 6.39508 2.89666 7.14364 2.87753 9.60229V9.67973ZM3.69385 13.5C4.32522 13.5 4.8418 12.9773 4.8418 12.3384C4.8418 11.6996 4.32522 11.1769 3.69385 11.1769C3.06248 11.1769 2.5459 11.6996 2.5459 12.3384C2.5459 12.9773 3.06248 13.5 3.69385 13.5Z" fill="white"/>
</svg>
